<?xml version="1.0" encoding="UTF-8"?><svg id="Layer_1" xmlns="http://www.w3.org/2000/svg" viewBox="0 0 16 16"><defs><style>.cls-1{fill:none;stroke:#4e4d7e;stroke-miterlimit:10;stroke-width:.25px;}.cls-2{fill:#4e4d7e;}</style></defs><path class="cls-2" d="M2.77,14.9c-.15-.13-.19-.34-.19-.54,0-.98,.01-1.96,.01-2.93V4.56c0-.47,.04-.95,0-1.42s-.09-.99-.02-1.49c.03-.2,.09-.41,.22-.57,.41-.48,1.08-.23,1.61-.24,.49,0,.98,0,1.47,0h1.84c1.84,0,3.24,.34,4.19,1.01,.96,.67,1.44,1.65,1.44,2.93,0,.74-.17,1.37-.51,1.89-.34,.52-.84,.91-1.5,1.16,.75,.2,1.32,.56,1.72,1.1,.4,.54,.6,1.19,.6,1.96,0,1.4-.44,2.45-1.33,3.15-.89,.7-2.2,1.06-3.94,1.07h-.81c-.76,0-1.51,0-2.27,0s-1.48,.08-2.21-.09c-.11-.02-.23-.06-.33-.14ZM6.04,6.8h1.8c.75,0,1.29-.14,1.61-.41,.32-.27,.48-.67,.48-1.19,0-.6-.17-1.04-.52-1.3-.35-.27-.91-.4-1.68-.4h-1.69v3.31Zm0,2.26v3.42h2.26c.62,0,1.1-.14,1.43-.43,.33-.28,.5-.69,.5-1.2,0-1.19-.59-1.79-1.78-1.8h-2.41Z"/><path class="cls-2" d="M14.5,2.71c.02,.14,.09,.28,.22,.36,.14,.08,.32,.09,.47,.01,.28-.14,.41-.53,.23-.8-.25-.37-.77-.16-.89,.22-.02,.07-.03,.14-.02,.22Z"/><path class="cls-1" d="M.62,1.63c.04,.17,.16,.33,.32,.4,.16,.08,.37,.07,.5-.05,.6-.56-.6-1.46-.82-.58-.02,.08-.02,.16,0,.23Z"/><path class="cls-1" d="M14.02,14.39c-.06,.07-.11,.16-.13,.25-.04,.12-.04,.25,.01,.37,.09,.18,.3,.27,.5,.3,.15,.02,.32,.03,.46-.03,.27-.11,.34-.41,.23-.67-.14-.31-.53-.52-.86-.37-.08,.04-.15,.09-.21,.16Z"/></svg>