<?xml version="1.0" encoding="UTF-8"?><svg id="Layer_2" xmlns="http://www.w3.org/2000/svg" viewBox="0 0 179.45 179.45"><defs><style>.cls-1{fill:#2d2c44;}.cls-2{fill:#3a394f;stroke:#3a394f;}.cls-2,.cls-3,.cls-4,.cls-5{stroke-miterlimit:10;stroke-width:10px;}.cls-3{fill:#e9d5da;stroke:#e9d5da;}.cls-6{fill:#4e4d7e;}.cls-4{stroke:#2d2c44;}.cls-4,.cls-5{fill:none;}.cls-5{stroke:#4e4d7e;}</style></defs><g id="Layer_1-2"><g><g><rect class="cls-1" x="14" y="14" width="160.45" height="160.45" rx="12" ry="12"/><rect class="cls-4" x="14" y="14" width="160.45" height="160.45" rx="12" ry="12"/></g><g><rect class="cls-6" x="5" y="5" width="160.45" height="160.45" rx="12" ry="12"/><rect class="cls-5" x="5" y="5" width="160.45" height="160.45" rx="12" ry="12"/></g></g><g><g><rect class="cls-2" x="26.95" y="101.06" width="30.17" height="57.27" rx="12" ry="12"/><rect class="cls-2" x="77.14" y="67.1" width="30.17" height="91.23" rx="12" ry="12"/><rect class="cls-2" x="127.33" y="33.03" width="30.17" height="125.29" rx="12" ry="12"/></g><g><rect class="cls-3" x="19.95" y="94.06" width="30.17" height="57.27" rx="12" ry="12"/><rect class="cls-3" x="70.14" y="60.1" width="30.17" height="91.23" rx="12" ry="12"/><rect class="cls-3" x="120.33" y="26.03" width="30.17" height="125.29" rx="12" ry="12"/></g></g></g></svg>