<?xml version="1.0" encoding="UTF-8"?><svg id="Layer_2" xmlns="http://www.w3.org/2000/svg" viewBox="0 0 509.15 245.97"><defs><style>.cls-1{stroke:#4e4d7e;}.cls-1,.cls-2{fill:none;stroke-linecap:round;stroke-linejoin:round;stroke-width:5px;}.cls-3{fill:#2d2c44;}.cls-4{fill:#3a394f;}.cls-2{stroke:#2d2c44;}.cls-5{fill:#4e4d7e;}.cls-6{fill:#e9d5da;}</style></defs><g id="Layer_1-2"><g><g><path class="cls-3" d="M377.92,122.26c-9.97,4.21-25.18,3.45-35.38,.4-6.25-1.86-12.18-5.56-16.15-10.79-1.52-2-2.61-4.2-3.41-6.51-3.06,11.34-10.64,21.31-22.09,26.15-10.97,4.62-27.68,3.79-38.9,.44-6.88-2.05-13.39-6.12-17.77-11.87-4.72-6.22-5.64-14.06-6.21-21.64-.05-.67-.09-1.33-.12-2-3.47,8.07-9.67,14.89-18.27,18.52-9.97,4.2-25.17,3.45-35.37,.4-6.25-1.86-12.18-5.56-16.15-10.79-1.86-2.43-3.06-5.15-3.88-8.01-.95,14.04-8.84,27.44-22.5,33.2-10.48,4.42-26.46,3.63-37.18,.43-6.57-1.96-12.8-5.85-16.98-11.35-4.52-5.94-5.4-13.44-5.94-20.68-.14-1.87-.19-3.75-.14-5.62-3.62,6.63-9.25,12.12-16.66,15.25-9.97,4.21-25.17,3.46-35.37,.41-6.25-1.86-12.18-5.57-16.16-10.8-4.29-5.65-5.13-12.78-5.64-19.67-.75-9.98,1.28-20.06,6.32-28.14,3.9-6.25,9.6-11.3,17.21-14.21,5.9-2.26,12.28-2.79,18.52-1.9-.21-1.2-.32-2.44-.41-3.66-.37-4.99,.64-10.03,3.17-14.07,1.95-3.12,4.8-5.65,8.6-7.1,9.56-3.66,21.62,1.77,25.83,10.97,4.21,9.18,.59,21.18-9.01,25.24-.99,.41-2.08,.73-3.23,.96,3.41,3.33,6.22,7.21,8.19,11.5,2.15,4.7,3.28,9.77,3.45,14.85,.59-1.23,1.26-2.43,1.98-3.59,4.1-6.56,10.09-11.88,18.09-14.94,20.11-7.69,45.44,3.73,54.3,23.06,.63,1.37,1.18,2.78,1.64,4.21-.01-8.64,2.1-17.14,6.48-24.16,1-1.6,2.12-3.12,3.35-4.54-1.75-.21-3.41-.55-4.87-.99-3.12-.93-6.09-2.78-8.07-5.39-2.15-2.83-2.57-6.4-2.83-9.84-.37-4.99,.64-10.03,3.17-14.07,1.95-3.12,4.8-5.65,8.6-7.11,9.56-3.66,21.62,1.77,25.83,10.97,2.13,4.64,2.26,10,.62,14.69,17.21-1.93,35.86,8.29,43.06,24.01,1.69,3.7,2.75,7.63,3.21,11.61,1.07-3.02,2.45-5.91,4.12-8.59,4.29-6.86,10.56-12.43,18.92-15.63,21.04-8.05,47.54,3.89,56.81,24.13,.32,.7,.62,1.4,.89,2.11,1.02-5.03,2.84-9.81,5.48-14.05,3.9-6.25,9.6-11.31,17.2-14.22,.92-.35,1.84-.66,2.78-.92-.03-.03-.05-.07-.08-.1-2.14-2.83-2.56-6.39-2.82-9.84-.38-4.99,.64-10.02,3.16-14.07,1.95-3.12,4.8-5.65,8.61-7.1,9.56-3.66,21.61,1.77,25.83,10.97,3.67,8,1.39,18.15-5.62,23.31,8.61,4.23,15.9,11.15,19.81,19.69,8.42,18.38,1.18,42.37-18.02,50.48Z"/><path class="cls-2" d="M377.92,122.26c-9.97,4.21-25.18,3.45-35.38,.4-6.25-1.86-12.18-5.56-16.15-10.79-1.52-2-2.61-4.2-3.41-6.51-3.06,11.34-10.64,21.31-22.09,26.15-10.97,4.62-27.68,3.79-38.9,.44-6.88-2.05-13.39-6.12-17.77-11.87-4.72-6.22-5.64-14.06-6.21-21.64-.05-.67-.09-1.33-.12-2-3.47,8.07-9.67,14.89-18.27,18.52-9.97,4.2-25.17,3.45-35.37,.4-6.25-1.86-12.18-5.56-16.15-10.79-1.86-2.43-3.06-5.15-3.88-8.01-.95,14.04-8.84,27.44-22.5,33.2-10.48,4.42-26.46,3.63-37.18,.43-6.57-1.96-12.8-5.85-16.98-11.35-4.52-5.94-5.4-13.44-5.94-20.68-.14-1.87-.19-3.75-.14-5.62-3.62,6.63-9.25,12.12-16.66,15.25-9.97,4.21-25.17,3.46-35.37,.41-6.25-1.86-12.18-5.57-16.16-10.8-4.29-5.65-5.13-12.78-5.64-19.67-.75-9.98,1.28-20.06,6.32-28.14,3.9-6.25,9.6-11.3,17.21-14.21,5.9-2.26,12.28-2.79,18.52-1.9-.21-1.2-.32-2.44-.41-3.66-.37-4.99,.64-10.03,3.17-14.07,1.95-3.12,4.8-5.65,8.6-7.1,9.56-3.66,21.62,1.77,25.83,10.97,4.21,9.18,.59,21.18-9.01,25.24-.99,.41-2.08,.73-3.23,.96,3.41,3.33,6.22,7.21,8.19,11.5,2.15,4.7,3.28,9.77,3.45,14.85,.59-1.23,1.26-2.43,1.98-3.59,4.1-6.56,10.09-11.88,18.09-14.94,20.11-7.69,45.44,3.73,54.3,23.06,.63,1.37,1.18,2.78,1.64,4.21-.01-8.64,2.1-17.14,6.48-24.16,1-1.6,2.12-3.12,3.35-4.54-1.75-.21-3.41-.55-4.87-.99-3.12-.93-6.09-2.78-8.07-5.39-2.15-2.83-2.57-6.4-2.83-9.84-.37-4.99,.64-10.03,3.17-14.07,1.95-3.12,4.8-5.65,8.6-7.11,9.56-3.66,21.62,1.77,25.83,10.97,2.13,4.64,2.26,10,.62,14.69,17.21-1.93,35.86,8.29,43.06,24.01,1.69,3.7,2.75,7.63,3.21,11.61,1.07-3.02,2.45-5.91,4.12-8.59,4.29-6.86,10.56-12.43,18.92-15.63,21.04-8.05,47.54,3.89,56.81,24.13,.32,.7,.62,1.4,.89,2.11,1.02-5.03,2.84-9.81,5.48-14.05,3.9-6.25,9.6-11.31,17.2-14.22,.92-.35,1.84-.66,2.78-.92-.03-.03-.05-.07-.08-.1-2.14-2.83-2.56-6.39-2.82-9.84-.38-4.99,.64-10.02,3.16-14.07,1.95-3.12,4.8-5.65,8.61-7.1,9.56-3.66,21.61,1.77,25.83,10.97,3.67,8,1.39,18.15-5.62,23.31,8.61,4.23,15.9,11.15,19.81,19.69,8.42,18.38,1.18,42.37-18.02,50.48Z"/></g><g><path class="cls-5" d="M372.92,117.26c-9.97,4.21-25.18,3.45-35.38,.4-6.25-1.86-12.18-5.56-16.15-10.79-1.52-2-2.61-4.2-3.41-6.51-3.06,11.34-10.64,21.31-22.09,26.15-10.97,4.62-27.68,3.79-38.9,.44-6.88-2.05-13.39-6.12-17.77-11.87-4.72-6.22-5.64-14.06-6.21-21.64-.05-.67-.09-1.33-.12-2-3.47,8.07-9.67,14.89-18.27,18.52-9.97,4.2-25.17,3.45-35.37,.4-6.25-1.86-12.18-5.56-16.15-10.79-1.86-2.43-3.06-5.15-3.88-8.01-.95,14.04-8.84,27.44-22.5,33.2-10.48,4.42-26.46,3.63-37.18,.43-6.57-1.96-12.8-5.85-16.98-11.35-4.52-5.94-5.4-13.44-5.94-20.68-.14-1.87-.19-3.75-.14-5.62-3.62,6.63-9.25,12.12-16.66,15.25-9.97,4.21-25.17,3.46-35.37,.41-6.25-1.86-12.18-5.57-16.16-10.8-4.29-5.65-5.13-12.78-5.64-19.67-.75-9.98,1.28-20.06,6.32-28.14,3.9-6.25,9.6-11.3,17.21-14.21,5.9-2.26,12.28-2.79,18.52-1.9-.21-1.2-.32-2.44-.41-3.66-.37-4.99,.64-10.03,3.17-14.07,1.95-3.12,4.8-5.65,8.6-7.1C65.62,0,77.68,5.42,81.89,14.62c4.21,9.18,.59,21.18-9.01,25.24-.99,.41-2.08,.73-3.23,.96,3.41,3.33,6.22,7.21,8.19,11.5,2.15,4.7,3.28,9.77,3.45,14.85,.59-1.23,1.26-2.43,1.98-3.59,4.1-6.56,10.09-11.88,18.09-14.94,20.11-7.69,45.44,3.73,54.3,23.06,.63,1.37,1.18,2.78,1.64,4.21-.01-8.64,2.1-17.14,6.48-24.16,1-1.6,2.12-3.12,3.35-4.54-1.75-.21-3.41-.55-4.87-.99-3.12-.93-6.09-2.78-8.07-5.39-2.15-2.83-2.57-6.4-2.83-9.84-.37-4.99,.64-10.03,3.17-14.07,1.95-3.12,4.8-5.65,8.6-7.11,9.56-3.66,21.62,1.77,25.83,10.97,2.13,4.64,2.26,10,.62,14.69,17.21-1.93,35.86,8.29,43.06,24.01,1.69,3.7,2.75,7.63,3.21,11.61,1.07-3.02,2.45-5.91,4.12-8.59,4.29-6.86,10.56-12.43,18.92-15.63,21.04-8.05,47.54,3.89,56.81,24.13,.32,.7,.62,1.4,.89,2.11,1.02-5.03,2.84-9.81,5.48-14.05,3.9-6.25,9.6-11.31,17.2-14.22,.92-.35,1.84-.66,2.78-.92-.03-.03-.05-.07-.08-.1-2.14-2.83-2.56-6.39-2.82-9.84-.38-4.99,.64-10.02,3.16-14.07,1.95-3.12,4.8-5.65,8.61-7.1,9.56-3.66,21.61,1.77,25.83,10.97,3.67,8,1.39,18.15-5.62,23.31,8.61,4.23,15.9,11.15,19.81,19.69,8.42,18.38,1.18,42.37-18.02,50.48Z"/><path class="cls-1" d="M372.92,117.26c-9.97,4.21-25.18,3.45-35.38,.4-6.25-1.86-12.18-5.56-16.15-10.79-1.52-2-2.61-4.2-3.41-6.51-3.06,11.34-10.64,21.31-22.09,26.15-10.97,4.62-27.68,3.79-38.9,.44-6.88-2.05-13.39-6.12-17.77-11.87-4.72-6.22-5.64-14.06-6.21-21.64-.05-.67-.09-1.33-.12-2-3.47,8.07-9.67,14.89-18.27,18.52-9.97,4.2-25.17,3.45-35.37,.4-6.25-1.86-12.18-5.56-16.15-10.79-1.86-2.43-3.06-5.15-3.88-8.01-.95,14.04-8.84,27.44-22.5,33.2-10.48,4.42-26.46,3.63-37.18,.43-6.57-1.96-12.8-5.85-16.98-11.35-4.52-5.94-5.4-13.44-5.94-20.68-.14-1.87-.19-3.75-.14-5.62-3.62,6.63-9.25,12.12-16.66,15.25-9.97,4.21-25.17,3.46-35.37,.41-6.25-1.86-12.18-5.57-16.16-10.8-4.29-5.65-5.13-12.78-5.64-19.67-.75-9.98,1.28-20.06,6.32-28.14,3.9-6.25,9.6-11.3,17.21-14.21,5.9-2.26,12.28-2.79,18.52-1.9-.21-1.2-.32-2.44-.41-3.66-.37-4.99,.64-10.03,3.17-14.07,1.95-3.12,4.8-5.65,8.6-7.1C65.62,0,77.68,5.42,81.89,14.62c4.21,9.18,.59,21.18-9.01,25.24-.99,.41-2.08,.73-3.23,.96,3.41,3.33,6.22,7.21,8.19,11.5,2.15,4.7,3.28,9.77,3.45,14.85,.59-1.23,1.26-2.43,1.98-3.59,4.1-6.56,10.09-11.88,18.09-14.94,20.11-7.69,45.44,3.73,54.3,23.06,.63,1.37,1.18,2.78,1.64,4.21-.01-8.64,2.1-17.14,6.48-24.16,1-1.6,2.12-3.12,3.35-4.54-1.75-.21-3.41-.55-4.87-.99-3.12-.93-6.09-2.78-8.07-5.39-2.15-2.83-2.57-6.4-2.83-9.84-.37-4.99,.64-10.03,3.17-14.07,1.95-3.12,4.8-5.65,8.6-7.11,9.56-3.66,21.62,1.77,25.83,10.97,2.13,4.64,2.26,10,.62,14.69,17.21-1.93,35.86,8.29,43.06,24.01,1.69,3.7,2.75,7.63,3.21,11.61,1.07-3.02,2.45-5.91,4.12-8.59,4.29-6.86,10.56-12.43,18.92-15.63,21.04-8.05,47.54,3.89,56.81,24.13,.32,.7,.62,1.4,.89,2.11,1.02-5.03,2.84-9.81,5.48-14.05,3.9-6.25,9.6-11.31,17.2-14.22,.92-.35,1.84-.66,2.78-.92-.03-.03-.05-.07-.08-.1-2.14-2.83-2.56-6.39-2.82-9.84-.38-4.99,.64-10.02,3.16-14.07,1.95-3.12,4.8-5.65,8.61-7.1,9.56-3.66,21.61,1.77,25.83,10.97,3.67,8,1.39,18.15-5.62,23.31,8.61,4.23,15.9,11.15,19.81,19.69,8.42,18.38,1.18,42.37-18.02,50.48Z"/></g></g><g><g><path class="cls-3" d="M495.9,176.5c-2.92,1.23-6.73,1.61-10.42,1.4,1.03,1.56,1.94,3.19,2.72,4.89,8.42,18.38,1.19,42.38-18.02,50.48-9.97,4.21-25.17,3.45-35.37,.41-6.25-1.87-12.18-5.57-16.15-10.8-4.3-5.65-5.14-12.79-5.65-19.67-.01-.14-.02-.29-.02-.43-3.83,8.22-10.35,15.11-19.23,18.86-10.76,4.54-27.18,3.72-38.19,.44-6.76-2.02-13.16-6.02-17.45-11.66-.24-.32-.47-.64-.69-.97-1.05,13.18-8.54,25.68-21.36,31.09-9.97,4.21-25.17,3.45-35.37,.41-6.26-1.87-12.18-5.57-16.16-10.8-4.29-5.65-5.13-12.79-5.65-19.67-.14-1.8-.18-3.61-.13-5.41-3.07,9.56-9.76,17.85-19.56,21.99-9.97,4.2-25.17,3.45-35.37,.4-6.25-1.86-12.18-5.56-16.16-10.79-4.29-5.66-5.13-12.79-5.65-19.68-.27-3.65-.17-7.3,.31-10.87-4.96,1.74-12.02,1.32-16.85-.12-3.13-.93-6.09-2.78-8.08-5.4-2.15-2.82-2.57-6.39-2.82-9.84-.38-4.99,.64-10.02,3.16-14.06,1.95-3.13,4.8-5.66,8.6-7.11,9.57-3.66,21.62,1.77,25.83,10.97,.34,.75,.63,1.51,.87,2.29,3.37-3.48,7.54-6.3,12.52-8.21,19.13-7.32,43.23,3.54,51.66,21.94,2.31,5.05,3.45,10.53,3.47,15.98,1.06-3.63,2.57-7.07,4.53-10.22,3.9-6.25,9.6-11.31,17.21-14.22,17.66-6.75,39.55,1.99,49.44,17.84-.19-9.71,2.08-19.32,6.98-27.18,4.22-6.75,10.37-12.21,18.58-15.35,20.66-7.9,46.7,3.83,55.8,23.69,1.88,4.11,3.04,8.47,3.51,12.88,.75-1.71,1.62-3.36,2.6-4.93,3.9-6.25,9.6-11.31,17.2-14.22,9.91-3.79,21.16-2.7,30.87,1.8-.04-.39-.07-.79-.1-1.18-.37-5,.64-10.03,3.17-14.07,1.95-3.13,4.8-5.66,8.6-7.11,9.56-3.66,21.62,1.77,25.83,10.97,4.21,9.19,.59,21.19-9.01,25.24Z"/><path class="cls-2" d="M495.9,176.5c-2.92,1.23-6.73,1.61-10.42,1.4,1.03,1.56,1.94,3.19,2.72,4.89,8.42,18.38,1.19,42.38-18.02,50.48-9.97,4.21-25.17,3.45-35.37,.41-6.25-1.87-12.18-5.57-16.15-10.8-4.3-5.65-5.14-12.79-5.65-19.67-.01-.14-.02-.29-.02-.43-3.83,8.22-10.35,15.11-19.23,18.86-10.76,4.54-27.18,3.72-38.19,.44-6.76-2.02-13.16-6.02-17.45-11.66-.24-.32-.47-.64-.69-.97-1.05,13.18-8.54,25.68-21.36,31.09-9.97,4.21-25.17,3.45-35.37,.41-6.26-1.87-12.18-5.57-16.16-10.8-4.29-5.65-5.13-12.79-5.65-19.67-.14-1.8-.18-3.61-.13-5.41-3.07,9.56-9.76,17.85-19.56,21.99-9.97,4.2-25.17,3.45-35.37,.4-6.25-1.86-12.18-5.56-16.16-10.79-4.29-5.66-5.13-12.79-5.65-19.68-.27-3.65-.17-7.3,.31-10.87-4.96,1.74-12.02,1.32-16.85-.12-3.13-.93-6.09-2.78-8.08-5.4-2.15-2.82-2.57-6.39-2.82-9.84-.38-4.99,.64-10.02,3.16-14.06,1.95-3.13,4.8-5.66,8.6-7.11,9.57-3.66,21.62,1.77,25.83,10.97,.34,.75,.63,1.51,.87,2.29,3.37-3.48,7.54-6.3,12.52-8.21,19.13-7.32,43.23,3.54,51.66,21.94,2.31,5.05,3.45,10.53,3.47,15.98,1.06-3.63,2.57-7.07,4.53-10.22,3.9-6.25,9.6-11.31,17.21-14.22,17.66-6.75,39.55,1.99,49.44,17.84-.19-9.71,2.08-19.32,6.98-27.18,4.22-6.75,10.37-12.21,18.58-15.35,20.66-7.9,46.7,3.83,55.8,23.69,1.88,4.11,3.04,8.47,3.51,12.88,.75-1.71,1.62-3.36,2.6-4.93,3.9-6.25,9.6-11.31,17.2-14.22,9.91-3.79,21.16-2.7,30.87,1.8-.04-.39-.07-.79-.1-1.18-.37-5,.64-10.03,3.17-14.07,1.95-3.13,4.8-5.66,8.6-7.11,9.56-3.66,21.62,1.77,25.83,10.97,4.21,9.19,.59,21.19-9.01,25.24Z"/></g><g><path class="cls-5" d="M490.9,171.5c-2.92,1.23-6.73,1.61-10.42,1.4,1.03,1.56,1.94,3.19,2.72,4.89,8.42,18.38,1.19,42.38-18.02,50.48-9.97,4.21-25.17,3.45-35.37,.41-6.25-1.87-12.18-5.57-16.15-10.8-4.3-5.65-5.14-12.79-5.65-19.67-.01-.14-.02-.29-.02-.43-3.83,8.22-10.35,15.11-19.23,18.86-10.76,4.54-27.18,3.72-38.19,.44-6.76-2.02-13.16-6.02-17.45-11.66-.24-.32-.47-.64-.69-.97-1.05,13.18-8.54,25.68-21.36,31.09-9.97,4.21-25.17,3.45-35.37,.41-6.26-1.87-12.18-5.57-16.16-10.8-4.29-5.65-5.13-12.79-5.65-19.67-.14-1.8-.18-3.61-.13-5.41-3.07,9.56-9.76,17.85-19.56,21.99-9.97,4.2-25.17,3.45-35.37,.4-6.25-1.86-12.18-5.56-16.16-10.79-4.29-5.66-5.13-12.79-5.65-19.68-.27-3.65-.17-7.3,.31-10.87-4.96,1.74-12.02,1.32-16.85-.12-3.13-.93-6.09-2.78-8.08-5.4-2.15-2.82-2.57-6.39-2.82-9.84-.38-4.99,.64-10.02,3.16-14.06,1.95-3.13,4.8-5.66,8.6-7.11,9.57-3.66,21.62,1.77,25.83,10.97,.34,.75,.63,1.51,.87,2.29,3.37-3.48,7.54-6.3,12.52-8.21,19.13-7.32,43.23,3.54,51.66,21.94,2.31,5.05,3.45,10.53,3.47,15.98,1.06-3.63,2.57-7.07,4.53-10.22,3.9-6.25,9.6-11.31,17.21-14.22,17.66-6.75,39.55,1.99,49.44,17.84-.19-9.71,2.08-19.32,6.98-27.18,4.22-6.75,10.37-12.21,18.58-15.35,20.66-7.9,46.7,3.83,55.8,23.69,1.88,4.11,3.04,8.47,3.51,12.88,.75-1.71,1.62-3.36,2.6-4.93,3.9-6.25,9.6-11.31,17.2-14.22,9.91-3.79,21.16-2.7,30.87,1.8-.04-.39-.07-.79-.1-1.18-.37-5,.64-10.03,3.17-14.07,1.95-3.13,4.8-5.66,8.6-7.11,9.56-3.66,21.62,1.77,25.83,10.97,4.21,9.19,.59,21.19-9.01,25.24Z"/><path class="cls-1" d="M490.9,171.5c-2.92,1.23-6.73,1.61-10.42,1.4,1.03,1.56,1.94,3.19,2.72,4.89,8.42,18.38,1.19,42.38-18.02,50.48-9.97,4.21-25.17,3.45-35.37,.41-6.25-1.87-12.18-5.57-16.15-10.8-4.3-5.65-5.14-12.79-5.65-19.67-.01-.14-.02-.29-.02-.43-3.83,8.22-10.35,15.11-19.23,18.86-10.76,4.54-27.18,3.72-38.19,.44-6.76-2.02-13.16-6.02-17.45-11.66-.24-.32-.47-.64-.69-.97-1.05,13.18-8.54,25.68-21.36,31.09-9.97,4.21-25.17,3.45-35.37,.41-6.26-1.87-12.18-5.57-16.16-10.8-4.29-5.65-5.13-12.79-5.65-19.67-.14-1.8-.18-3.61-.13-5.41-3.07,9.56-9.76,17.85-19.56,21.99-9.97,4.2-25.17,3.45-35.37,.4-6.25-1.86-12.18-5.56-16.16-10.79-4.29-5.66-5.13-12.79-5.65-19.68-.27-3.65-.17-7.3,.31-10.87-4.96,1.74-12.02,1.32-16.85-.12-3.13-.93-6.09-2.78-8.08-5.4-2.15-2.82-2.57-6.39-2.82-9.84-.38-4.99,.64-10.02,3.16-14.06,1.95-3.13,4.8-5.66,8.6-7.11,9.57-3.66,21.62,1.77,25.83,10.97,.34,.75,.63,1.51,.87,2.29,3.37-3.48,7.54-6.3,12.52-8.21,19.13-7.32,43.23,3.54,51.66,21.94,2.31,5.05,3.45,10.53,3.47,15.98,1.06-3.63,2.57-7.07,4.53-10.22,3.9-6.25,9.6-11.31,17.21-14.22,17.66-6.75,39.55,1.99,49.44,17.84-.19-9.71,2.08-19.32,6.98-27.18,4.22-6.75,10.37-12.21,18.58-15.35,20.66-7.9,46.7,3.83,55.8,23.69,1.88,4.11,3.04,8.47,3.51,12.88,.75-1.71,1.62-3.36,2.6-4.93,3.9-6.25,9.6-11.31,17.2-14.22,9.91-3.79,21.16-2.7,30.87,1.8-.04-.39-.07-.79-.1-1.18-.37-5,.64-10.03,3.17-14.07,1.95-3.13,4.8-5.66,8.6-7.11,9.56-3.66,21.62,1.77,25.83,10.97,4.21,9.19,.59,21.19-9.01,25.24Z"/></g></g><g><polygon class="cls-3" points="434.9 92.52 475.27 88.61 472.23 78.43 429.26 73.66 434.9 92.52"/><polygon class="cls-5" points="429.9 87.52 470.27 83.61 467.23 73.43 424.26 68.66 429.9 87.52"/></g><g><path class="cls-4" d="M68.92,67.06c0,3.52-.84,6.55-2.52,9.11-1.43,2.15-3.2,3.67-5.33,4.57,1.37,.59,2.48,1.55,3.34,2.9,.86,1.35,1.29,2.78,1.29,4.31,0,3.79-2.02,6.56-6.06,8.32-3.12,1.37-7.23,2.05-12.3,2.05-4.38,0-9.07-.36-14.09-1.08-.14-4.55-.42-11.97-.85-22.27-.29-5.53-.73-13.11-1.32-22.73,3.71-.72,8.41-1.08,14.09-1.08,15.84,0,23.76,5.3,23.76,15.91Zm-12.89,19.42c0-2.27-1.62-3.4-4.86-3.4-.33,0-.67,.02-1.03,.06l-.18,7.18c4.04,.18,6.06-1.1,6.06-3.84Zm.97-13.92c0-1.5-.61-2.66-1.82-3.46-1.09-.72-2.53-1.06-4.31-1.03l-.44,8.82c4.38,.16,6.56-1.29,6.56-4.34Z"/><path class="cls-6" d="M63.92,62.06c0,3.52-.84,6.55-2.52,9.11-1.43,2.15-3.2,3.67-5.33,4.57,1.37,.59,2.48,1.55,3.34,2.9,.86,1.35,1.29,2.78,1.29,4.31,0,3.79-2.02,6.56-6.06,8.32-3.12,1.37-7.23,2.05-12.3,2.05-4.38,0-9.07-.36-14.09-1.08-.14-4.55-.42-11.97-.85-22.27-.29-5.53-.73-13.11-1.32-22.73,3.71-.72,8.41-1.08,14.09-1.08,15.84,0,23.76,5.3,23.76,15.91Zm-12.89,19.42c0-2.27-1.62-3.4-4.86-3.4-.33,0-.67,.02-1.03,.06l-.18,7.18c4.04,.18,6.06-1.1,6.06-3.84Zm.97-13.92c0-1.5-.61-2.66-1.82-3.46-1.09-.72-2.53-1.06-4.31-1.03l-.44,8.82c4.38,.16,6.56-1.29,6.56-4.34Z"/></g><g><path class="cls-4" d="M131.11,72.88l-1.14,23.94c-.22,5.16-.47,12.18-.76,21.06h-16.44l-1.99-45h20.33Z"/><path class="cls-6" d="M126.11,67.88l-1.14,23.94c-.22,5.16-.47,12.18-.76,21.06h-16.44l-1.99-45h20.33Z"/></g><g><path class="cls-4" d="M218.76,59.77c-.27,3.95-.65,10.83-1.14,20.65-.29,7.23-.54,15.54-.73,24.93-2.56-2.01-6.46-5.01-11.69-8.99-2.27-1.58-5.64-3.96-10.14-7.12l-.29,15.53h-9.43c-.16-3.96-.52-11.44-1.08-22.44-.49-8.91-.99-16.43-1.49-22.56h14.71l10.9,10.31c0-2.36-.04-4.22-.12-5.57-.06-1.19-.18-2.77-.35-4.75h10.87Z"/><path class="cls-6" d="M213.76,54.77c-.27,3.95-.65,10.83-1.14,20.65-.29,7.23-.54,15.54-.73,24.93-2.56-2.01-6.46-5.01-11.69-8.99-2.27-1.58-5.64-3.96-10.14-7.12l-.29,15.53h-9.43c-.16-3.96-.52-11.44-1.08-22.44-.49-8.91-.99-16.43-1.49-22.56h14.71l10.9,10.31c0-2.36-.04-4.22-.12-5.57-.06-1.19-.18-2.77-.35-4.75h10.87Z"/></g><g><path class="cls-4" d="M297.23,95.03c-.2,1.66-.49,4.79-.88,9.4-.2,2.75-.38,6.02-.56,9.79-2.62,.76-6.44,1.14-11.46,1.14-7.46,0-13.53-1.68-18.19-5.04-5.51-4-8.26-9.96-8.26-17.87s2.41-13.5,7.24-17.75c4.53-4,10.5-6.01,17.9-6.01,2.79,0,5.79,.22,8.99,.64l1.61,18.49c-1.29-.49-3.12-.73-5.51-.73-3.03,0-5.76,.93-8.2,2.78-2.73,2.09-4.1,4.75-4.1,7.97,0,3.05,1.16,5.4,3.49,7.06,1.95,1.41,4.21,2.07,6.77,1.99l-.47-5.89c-.12-1.21-.38-3.2-.79-5.98h12.42Z"/><path class="cls-6" d="M292.23,90.03c-.2,1.66-.49,4.79-.88,9.4-.2,2.75-.38,6.02-.56,9.79-2.62,.76-6.44,1.14-11.46,1.14-7.46,0-13.53-1.68-18.19-5.04-5.51-4-8.26-9.96-8.26-17.87s2.41-13.5,7.24-17.75c4.53-4,10.5-6.01,17.9-6.01,2.79,0,5.79,.22,8.99,.64l1.61,18.49c-1.29-.49-3.12-.73-5.51-.73-3.03,0-5.76,.93-8.2,2.78-2.73,2.09-4.1,4.75-4.1,7.97,0,3.05,1.16,5.4,3.49,7.06,1.95,1.41,4.21,2.07,6.77,1.99l-.47-5.89c-.12-1.21-.38-3.2-.79-5.98h12.42Z"/></g><g><path class="cls-4" d="M383.51,88.75c0,6.9-1.78,12.73-5.33,17.49-3.73,4.98-8.51,7.47-14.33,7.47s-10.85-2.51-14.56-7.53c-3.5-4.73-5.24-10.54-5.24-17.43,0-7.36,1.9-13.14,5.71-17.34,3.59-3.94,8.29-5.92,14.09-5.92s10.35,1.98,13.95,5.95c3.81,4.22,5.71,9.99,5.71,17.31Zm-14.09,5.16c0-5.43-1.84-8.14-5.51-8.14s-5.36,2.73-5.36,8.2c0,2.19,.47,4.23,1.41,6.12,1.05,2.13,2.35,3.19,3.9,3.19s2.83-1.08,3.98-3.25c1.05-1.97,1.58-4.01,1.58-6.12Z"/><path class="cls-6" d="M378.51,83.75c0,6.9-1.78,12.73-5.33,17.49-3.73,4.98-8.51,7.47-14.33,7.47s-10.85-2.51-14.56-7.53c-3.5-4.73-5.24-10.54-5.24-17.43,0-7.36,1.9-13.14,5.71-17.34,3.59-3.94,8.29-5.92,14.09-5.92s10.35,1.98,13.95,5.95c3.81,4.22,5.71,9.99,5.71,17.31Zm-14.09,5.16c0-5.43-1.84-8.14-5.51-8.14s-5.36,2.73-5.36,8.2c0,2.19,.47,4.23,1.41,6.12,1.05,2.13,2.35,3.19,3.9,3.19s2.83-1.08,3.98-3.25c1.05-1.97,1.58-4.01,1.58-6.12Z"/></g><g><path class="cls-4" d="M238.48,203.97c-.2,.78-.56,2.26-1.08,4.42-.27,1.27-.51,2.75-.7,4.45h-26.51c-.1-4.59-.34-12.15-.73-22.68-.25-5.39-.71-12.83-1.38-22.32h20.33l-1.67,37.32c1.89,0,4.74-.21,8.53-.62,.78-.08,1.86-.27,3.22-.59Z"/><path class="cls-6" d="M233.48,198.97c-.2,.78-.56,2.26-1.08,4.42-.27,1.27-.51,2.75-.7,4.45h-26.51c-.1-4.59-.34-12.15-.73-22.68-.25-5.39-.71-12.83-1.38-22.32h20.33l-1.67,37.32c1.89,0,4.74-.21,8.53-.62,.78-.08,1.86-.27,3.22-.59Z"/></g><g><path class="cls-4" d="M319.52,203.82c0,6.9-1.78,12.73-5.33,17.49-3.73,4.98-8.51,7.47-14.33,7.47s-10.85-2.51-14.56-7.53c-3.5-4.73-5.24-10.54-5.24-17.43,0-7.36,1.9-13.14,5.71-17.34,3.59-3.94,8.29-5.92,14.09-5.92s10.35,1.98,13.95,5.95c3.81,4.22,5.71,9.99,5.71,17.31Zm-14.09,5.16c0-5.43-1.84-8.14-5.51-8.14s-5.36,2.73-5.36,8.2c0,2.19,.47,4.23,1.41,6.12,1.05,2.13,2.35,3.19,3.9,3.19s2.83-1.08,3.98-3.25c1.05-1.97,1.58-4.01,1.58-6.12Z"/><path class="cls-6" d="M314.52,198.82c0,6.9-1.78,12.73-5.33,17.49-3.73,4.98-8.51,7.47-14.33,7.47s-10.85-2.51-14.56-7.53c-3.5-4.73-5.24-10.54-5.24-17.43,0-7.36,1.9-13.14,5.71-17.34,3.59-3.94,8.29-5.92,14.09-5.92s10.35,1.98,13.95,5.95c3.81,4.22,5.71,9.99,5.71,17.31Zm-14.09,5.16c0-5.43-1.84-8.14-5.51-8.14s-5.36,2.73-5.36,8.2c0,2.19,.47,4.23,1.41,6.12,1.05,2.13,2.35,3.19,3.9,3.19s2.83-1.08,3.98-3.25c1.05-1.97,1.58-4.01,1.58-6.12Z"/></g><g><path class="cls-4" d="M392.02,185.87c-.2,1.66-.49,4.79-.88,9.4-.2,2.75-.38,6.02-.56,9.79-2.62,.76-6.44,1.14-11.46,1.14-7.46,0-13.53-1.68-18.19-5.04-5.51-4-8.26-9.96-8.26-17.87s2.41-13.5,7.24-17.75c4.53-4,10.5-6.01,17.9-6.01,2.79,0,5.79,.22,8.99,.64l1.61,18.49c-1.29-.49-3.12-.73-5.51-.73-3.03,0-5.76,.93-8.2,2.78-2.73,2.09-4.1,4.75-4.1,7.97,0,3.05,1.16,5.4,3.49,7.06,1.95,1.41,4.21,2.07,6.77,1.99l-.47-5.89c-.12-1.21-.38-3.2-.79-5.98h12.42Z"/><path class="cls-6" d="M387.02,180.87c-.2,1.66-.49,4.79-.88,9.4-.2,2.75-.38,6.02-.56,9.79-2.62,.76-6.44,1.14-11.46,1.14-7.46,0-13.53-1.68-18.19-5.04-5.51-4-8.26-9.96-8.26-17.87s2.41-13.5,7.24-17.75c4.53-4,10.5-6.01,17.9-6.01,2.79,0,5.79,.22,8.99,.64l1.61,18.49c-1.29-.49-3.12-.73-5.51-.73-3.03,0-5.76,.93-8.2,2.78-2.73,2.09-4.1,4.75-4.1,7.97,0,3.05,1.16,5.4,3.49,7.06,1.95,1.41,4.21,2.07,6.77,1.99l-.47-5.89c-.12-1.21-.38-3.2-.79-5.98h12.42Z"/></g><g><path class="cls-4" d="M474.31,174.85l-5.51,10.2c-1.48,2.79-3.49,6.7-6.01,11.72-.23,2.73-.54,6.61-.91,11.63-.12,2.68-.31,6.49-.59,11.46h-15c-.08-2.42-.25-6.3-.53-11.63-.16-2.01-.52-5.83-1.08-11.46-1.02-2.09-2.71-5.48-5.1-10.17-1.54-2.85-3.79-6.77-6.74-11.75h21.62c.35,1.27,.97,3.27,1.85,6.01l2.81,7.91c.74-1.8,1.75-4.45,3.02-7.97,.43-1.39,.99-3.37,1.67-5.95h10.49Z"/><path class="cls-6" d="M469.31,169.85l-5.51,10.2c-1.48,2.79-3.49,6.7-6.01,11.72-.23,2.73-.54,6.61-.91,11.63-.12,2.68-.31,6.49-.59,11.46h-15c-.08-2.42-.25-6.3-.53-11.63-.16-2.01-.52-5.83-1.08-11.46-1.02-2.09-2.71-5.48-5.1-10.17-1.54-2.85-3.79-6.77-6.74-11.75h21.62c.35,1.27,.97,3.27,1.85,6.01l2.81,7.91c.74-1.8,1.75-4.45,3.02-7.97,.43-1.39,.99-3.37,1.67-5.95h10.49Z"/></g></g></svg>