<?xml version="1.0" encoding="UTF-8"?><svg xmlns="http://www.w3.org/2000/svg" viewBox="0 0 518.35 253.94"><defs><style>.cls-1{mix-blend-mode:multiply;opacity:.75;}.cls-2{isolation:isolate;}.cls-3{fill:#57566b;}.cls-4{stroke:#4e4d7e;stroke-linecap:round;stroke-linejoin:round;stroke-width:5px;}.cls-4,.cls-5{fill:#4e4d7e;}.cls-6{fill:#e9d5da;}</style></defs><g class="cls-2"><g id="Layer_1"><path class="cls-4" d="M16.08,51.08c-5.04,8.08-7.08,18.15-6.33,28.14,.52,6.89,1.35,14.02,5.65,19.68,3.97,5.23,9.9,8.93,16.15,10.8,10.2,3.04,25.4,3.8,35.37-.41,19.21-8.1,26.44-32.1,18.02-50.48-8.43-18.4-32.53-29.26-51.66-21.94-7.61,2.91-13.31,7.97-17.2,14.22Z"/><path class="cls-4" d="M54.56,17.24c-2.52,4.04-3.54,9.08-3.16,14.07,.26,3.44,.68,7.01,2.82,9.84,1.99,2.62,4.95,4.47,8.08,5.4,5.1,1.52,12.7,1.9,17.69-.2,9.6-4.05,13.22-16.05,9.01-25.24-4.21-9.2-16.27-14.63-25.83-10.97-3.8,1.45-6.65,3.98-8.6,7.11Z"/><path class="cls-4" d="M349.42,26.4c-2.52,4.04-3.54,9.08-3.16,14.07,.26,3.44,.68,7.01,2.82,9.84,1.99,2.62,4.95,4.47,8.08,5.4,5.1,1.52,12.7,1.9,17.69-.2,9.6-4.05,13.22-16.05,9.01-25.24-4.21-9.2-16.27-14.63-25.83-10.97-3.8,1.45-6.65,3.98-8.6,7.11Z"/><path class="cls-4" d="M161.63,23.41c-2.52,4.04-3.54,9.08-3.16,14.07,.26,3.44,.68,7.01,2.82,9.84,1.99,2.62,4.95,4.47,8.08,5.4,5.1,1.52,12.7,1.9,17.69-.2,9.6-4.05,13.22-16.05,9.01-25.24-4.21-9.2-16.27-14.63-25.83-10.97-3.8,1.45-6.65,3.98-8.6,7.11Z"/><path class="cls-4" d="M154.81,162.66c-2.52,4.04-3.54,9.08-3.16,14.07,.26,3.44,.68,7.01,2.82,9.84,1.99,2.62,4.95,4.47,8.08,5.4,5.1,1.52,12.7,1.9,17.69-.2,9.6-4.05,13.22-16.05,9.01-25.24-4.21-9.2-16.27-14.63-25.83-10.97-3.8,1.45-6.65,3.98-8.6,7.11Z"/><path class="cls-4" d="M472.58,143.24c-2.52,4.04-3.54,9.08-3.16,14.07,.26,3.44,.68,7.01,2.82,9.84,1.99,2.62,4.95,4.47,8.08,5.4,5.1,1.52,12.7,1.9,17.69-.2,9.6-4.05,13.22-16.05,9.01-25.24-4.21-9.2-16.27-14.63-25.83-10.97-3.8,1.45-6.65,3.98-8.6,7.11Z"/><path class="cls-4" d="M92.06,71.21c-5.04,8.08-7.08,18.15-6.33,28.14,.52,6.89,1.35,14.02,5.65,19.68,3.97,5.23,9.9,8.93,16.15,10.8,10.2,3.04,25.4,3.8,35.37-.41,19.21-8.1,26.44-32.1,18.02-50.48-8.43-18.4-32.53-29.26-51.66-21.94-7.61,2.91-13.31,7.97-17.2,14.22Z"/><path class="cls-4" d="M170.88,58.24c-5.04,8.08-7.08,18.15-6.33,28.14,.52,6.89,1.35,14.02,5.65,19.68,3.97,5.23,9.9,8.93,16.15,10.8,10.2,3.04,25.4,3.8,35.37-.41,19.21-8.1,26.44-32.1,18.02-50.48-8.43-18.4-32.53-29.26-51.66-21.94-7.61,2.91-13.31,7.97-17.2,14.22Z"/><path class="cls-4" d="M250.36,71.21c-5.04,8.08-7.08,18.15-6.33,28.14,.52,6.89,1.35,14.02,5.65,19.68,3.97,5.23,9.9,8.93,16.15,10.8,10.2,3.04,25.4,3.8,35.37-.41,19.21-8.1,26.44-32.1,18.02-50.48-8.43-18.4-32.53-29.26-51.66-21.94-7.61,2.91-13.31,7.97-17.2,14.22Z"/><path class="cls-4" d="M329.18,65.54c-5.04,8.08-7.08,18.15-6.33,28.14,.52,6.89,1.35,14.02,5.65,19.68,3.97,5.23,9.9,8.93,16.15,10.8,10.2,3.04,25.4,3.8,35.37-.41,19.21-8.1,26.44-32.1,18.02-50.48-8.43-18.4-32.53-29.26-51.66-21.94-7.61,2.91-13.31,7.97-17.2,14.22Z"/><path class="cls-4" d="M190.46,170.34c-5.04,8.08-7.08,18.15-6.33,28.14,.52,6.89,1.35,14.02,5.65,19.68,3.97,5.23,9.9,8.93,16.15,10.8,10.2,3.04,25.4,3.8,35.37-.41,19.21-8.1,26.44-32.1,18.02-50.48-8.43-18.4-32.53-29.26-51.66-21.94-7.61,2.91-13.31,7.97-17.2,14.22Z"/><path class="cls-4" d="M267.33,183.83c-5.04,8.08-7.08,18.15-6.33,28.14,.52,6.89,1.35,14.02,5.65,19.68,3.97,5.23,9.9,8.93,16.15,10.8,10.2,3.04,25.4,3.8,35.37-.41,19.21-8.1,26.44-32.1,18.02-50.48-8.43-18.4-32.53-29.26-51.66-21.94-7.61,2.91-13.31,7.97-17.2,14.22Z"/><path class="cls-4" d="M343.09,160.56c-5.04,8.08-7.08,18.15-6.33,28.14,.52,6.89,1.35,14.02,5.65,19.68,3.97,5.23,9.9,8.93,16.15,10.8,10.2,3.04,25.4,3.8,35.37-.41,19.21-8.1,26.44-32.1,18.02-50.48-8.43-18.4-32.53-29.26-51.66-21.94-7.61,2.91-13.31,7.97-17.2,14.22Z"/><path class="cls-4" d="M421.44,176.56c-5.04,8.08-7.08,18.15-6.33,28.14,.52,6.89,1.35,14.02,5.65,19.68,3.97,5.23,9.9,8.93,16.15,10.8,10.2,3.04,25.4,3.8,35.37-.41,19.21-8.1,26.44-32.1,18.02-50.48-8.43-18.4-32.53-29.26-51.66-21.94-7.61,2.91-13.31,7.97-17.2,14.22Z"/><polygon class="cls-5" points="437.01 94 477.38 90.09 474.34 79.92 431.37 75.15 437.01 94"/><g><g class="cls-1"><path class="cls-3" d="M76.03,73.55c0,3.52-.84,6.55-2.52,9.11-1.43,2.15-3.2,3.67-5.33,4.57,1.37,.59,2.48,1.55,3.34,2.9,.86,1.35,1.29,2.78,1.29,4.31,0,3.79-2.02,6.56-6.06,8.32-3.12,1.37-7.23,2.05-12.3,2.05-4.38,0-9.07-.36-14.09-1.08-.14-4.55-.42-11.97-.85-22.27-.29-5.53-.73-13.11-1.32-22.73,3.71-.72,8.41-1.08,14.09-1.08,15.84,0,23.76,5.3,23.76,15.91Zm-12.89,19.42c0-2.27-1.62-3.4-4.86-3.4-.33,0-.67,.02-1.03,.06l-.18,7.18c4.04,.18,6.06-1.1,6.06-3.84Zm.97-13.92c0-1.5-.61-2.66-1.82-3.46-1.09-.72-2.53-1.06-4.31-1.03l-.44,8.82c4.38,.16,6.56-1.29,6.56-4.34Z"/></g><path class="cls-6" d="M71.03,68.55c0,3.52-.84,6.55-2.52,9.11-1.43,2.15-3.2,3.67-5.33,4.57,1.37,.59,2.48,1.55,3.34,2.9,.86,1.35,1.29,2.78,1.29,4.31,0,3.79-2.02,6.56-6.06,8.32-3.12,1.37-7.23,2.05-12.3,2.05-4.38,0-9.07-.36-14.09-1.08-.14-4.55-.42-11.97-.85-22.27-.29-5.53-.73-13.11-1.32-22.73,3.71-.72,8.41-1.08,14.09-1.08,15.84,0,23.76,5.3,23.76,15.91Zm-12.89,19.42c0-2.27-1.62-3.4-4.86-3.4-.33,0-.67,.02-1.03,.06l-.18,7.18c4.04,.18,6.06-1.1,6.06-3.84Zm.97-13.92c0-1.5-.61-2.66-1.82-3.46-1.09-.72-2.53-1.06-4.31-1.03l-.44,8.82c4.38,.16,6.56-1.29,6.56-4.34Z"/></g><g><g class="cls-1"><path class="cls-3" d="M138.22,79.37l-1.14,23.94c-.22,5.16-.47,12.18-.76,21.06h-16.44l-1.99-45h20.33Z"/></g><path class="cls-6" d="M133.22,74.37l-1.14,23.94c-.22,5.16-.47,12.18-.76,21.06h-16.44l-1.99-45h20.33Z"/></g><g><g class="cls-1"><path class="cls-3" d="M225.86,66.25c-.27,3.95-.65,10.83-1.14,20.65-.29,7.23-.54,15.54-.73,24.93-2.56-2.01-6.46-5.01-11.69-8.99-2.27-1.58-5.64-3.96-10.14-7.12l-.29,15.53h-9.43c-.16-3.96-.52-11.44-1.08-22.44-.49-8.91-.99-16.43-1.49-22.56h14.71l10.9,10.31c0-2.36-.04-4.22-.12-5.57-.06-1.19-.18-2.77-.35-4.75h10.87Z"/></g><path class="cls-6" d="M220.86,61.25c-.27,3.95-.65,10.83-1.14,20.65-.29,7.23-.54,15.54-.73,24.93-2.56-2.01-6.46-5.01-11.69-8.99-2.27-1.58-5.64-3.96-10.14-7.12l-.29,15.53h-9.43c-.16-3.96-.52-11.44-1.08-22.44-.49-8.91-.99-16.43-1.49-22.56h14.71l10.9,10.31c0-2.36-.04-4.22-.12-5.57-.06-1.19-.18-2.77-.35-4.75h10.87Z"/></g><g><g class="cls-1"><path class="cls-3" d="M308.19,105.12c-.2,1.66-.49,4.79-.88,9.4-.2,2.75-.38,6.02-.56,9.79-2.62,.76-6.44,1.14-11.46,1.14-7.46,0-13.53-1.68-18.19-5.04-5.51-4-8.26-9.96-8.26-17.87s2.41-13.5,7.24-17.75c4.53-4,10.5-6.01,17.9-6.01,2.79,0,5.79,.22,8.99,.64l1.61,18.49c-1.29-.49-3.12-.73-5.51-.73-3.03,0-5.76,.93-8.2,2.78-2.73,2.09-4.1,4.75-4.1,7.97,0,3.05,1.16,5.4,3.49,7.06,1.95,1.41,4.21,2.07,6.77,1.99l-.47-5.89c-.12-1.21-.38-3.2-.79-5.98h12.42Z"/></g><path class="cls-6" d="M303.19,100.12c-.2,1.66-.49,4.79-.88,9.4-.2,2.75-.38,6.02-.56,9.79-2.62,.76-6.44,1.14-11.46,1.14-7.46,0-13.53-1.68-18.19-5.04-5.51-4-8.26-9.96-8.26-17.87s2.41-13.5,7.24-17.75c4.53-4,10.5-6.01,17.9-6.01,2.79,0,5.79,.22,8.99,.64l1.61,18.49c-1.29-.49-3.12-.73-5.51-.73-3.03,0-5.76,.93-8.2,2.78-2.73,2.09-4.1,4.75-4.1,7.97,0,3.05,1.16,5.4,3.49,7.06,1.95,1.41,4.21,2.07,6.77,1.99l-.47-5.89c-.12-1.21-.38-3.2-.79-5.98h12.42Z"/></g><g><g class="cls-1"><path class="cls-3" d="M390.62,95.24c0,6.9-1.78,12.73-5.33,17.49-3.73,4.98-8.51,7.47-14.33,7.47s-10.85-2.51-14.56-7.53c-3.5-4.73-5.24-10.54-5.24-17.43,0-7.36,1.9-13.14,5.71-17.34,3.59-3.94,8.29-5.92,14.09-5.92s10.35,1.98,13.95,5.95c3.81,4.22,5.71,9.99,5.71,17.31Zm-14.09,5.16c0-5.43-1.84-8.14-5.51-8.14s-5.36,2.73-5.36,8.2c0,2.19,.47,4.23,1.41,6.12,1.05,2.13,2.35,3.19,3.9,3.19s2.83-1.08,3.98-3.25c1.05-1.97,1.58-4.01,1.58-6.12Z"/></g><path class="cls-6" d="M385.62,90.24c0,6.9-1.78,12.73-5.33,17.49-3.73,4.98-8.51,7.47-14.33,7.47s-10.85-2.51-14.56-7.53c-3.5-4.73-5.24-10.54-5.24-17.43,0-7.36,1.9-13.14,5.71-17.34,3.59-3.94,8.29-5.92,14.09-5.92s10.35,1.98,13.95,5.95c3.81,4.22,5.71,9.99,5.71,17.31Zm-14.09,5.16c0-5.43-1.84-8.14-5.51-8.14s-5.36,2.73-5.36,8.2c0,2.19,.47,4.23,1.41,6.12,1.05,2.13,2.35,3.19,3.9,3.19s2.83-1.08,3.98-3.25c1.05-1.97,1.58-4.01,1.58-6.12Z"/></g><g><g class="cls-1"><path class="cls-3" d="M245.59,210.46c-.2,.78-.56,2.26-1.08,4.42-.27,1.27-.51,2.75-.7,4.45h-26.51c-.1-4.59-.34-12.15-.73-22.68-.25-5.39-.71-12.83-1.38-22.32h20.33l-1.67,37.32c1.89,0,4.74-.21,8.53-.62,.78-.08,1.86-.27,3.22-.59Z"/></g><path class="cls-6" d="M240.59,205.46c-.2,.78-.56,2.26-1.08,4.42-.27,1.27-.51,2.75-.7,4.45h-26.51c-.1-4.59-.34-12.15-.73-22.68-.25-5.39-.71-12.83-1.38-22.32h20.33l-1.67,37.32c1.89,0,4.74-.21,8.53-.62,.78-.08,1.86-.27,3.22-.59Z"/></g><g><g class="cls-1"><path class="cls-3" d="M326.62,210.31c0,6.9-1.78,12.73-5.33,17.49-3.73,4.98-8.51,7.47-14.33,7.47s-10.85-2.51-14.56-7.53c-3.5-4.73-5.24-10.54-5.24-17.43,0-7.36,1.9-13.14,5.71-17.34,3.59-3.94,8.29-5.92,14.09-5.92s10.35,1.98,13.95,5.95c3.81,4.22,5.71,9.99,5.71,17.31Zm-14.09,5.16c0-5.43-1.84-8.14-5.51-8.14s-5.36,2.73-5.36,8.2c0,2.19,.47,4.23,1.41,6.12,1.05,2.13,2.35,3.19,3.9,3.19s2.83-1.08,3.98-3.25c1.05-1.97,1.58-4.01,1.58-6.12Z"/></g><path class="cls-6" d="M321.62,205.31c0,6.9-1.78,12.73-5.33,17.49-3.73,4.98-8.51,7.47-14.33,7.47s-10.85-2.51-14.56-7.53c-3.5-4.73-5.24-10.54-5.24-17.43,0-7.36,1.9-13.14,5.71-17.34,3.59-3.94,8.29-5.92,14.09-5.92s10.35,1.98,13.95,5.95c3.81,4.22,5.71,9.99,5.71,17.31Zm-14.09,5.16c0-5.43-1.84-8.14-5.51-8.14s-5.36,2.73-5.36,8.2c0,2.19,.47,4.23,1.41,6.12,1.05,2.13,2.35,3.19,3.9,3.19s2.83-1.08,3.98-3.25c1.05-1.97,1.58-4.01,1.58-6.12Z"/></g><g><g class="cls-1"><path class="cls-3" d="M399.12,192.36c-.2,1.66-.49,4.79-.88,9.4-.2,2.75-.38,6.02-.56,9.79-2.62,.76-6.44,1.14-11.46,1.14-7.46,0-13.53-1.68-18.19-5.04-5.51-4-8.26-9.96-8.26-17.87s2.41-13.5,7.24-17.75c4.53-4,10.5-6.01,17.9-6.01,2.79,0,5.79,.22,8.99,.64l1.61,18.49c-1.29-.49-3.12-.73-5.51-.73-3.03,0-5.76,.93-8.2,2.78-2.73,2.09-4.1,4.75-4.1,7.97,0,3.05,1.16,5.4,3.49,7.06,1.95,1.41,4.21,2.07,6.77,1.99l-.47-5.89c-.12-1.21-.38-3.2-.79-5.98h12.42Z"/></g><path class="cls-6" d="M394.12,187.36c-.2,1.66-.49,4.79-.88,9.4-.2,2.75-.38,6.02-.56,9.79-2.62,.76-6.44,1.14-11.46,1.14-7.46,0-13.53-1.68-18.19-5.04-5.51-4-8.26-9.96-8.26-17.87s2.41-13.5,7.24-17.75c4.53-4,10.5-6.01,17.9-6.01,2.79,0,5.79,.22,8.99,.64l1.61,18.49c-1.29-.49-3.12-.73-5.51-.73-3.03,0-5.76,.93-8.2,2.78-2.73,2.09-4.1,4.75-4.1,7.97,0,3.05,1.16,5.4,3.49,7.06,1.95,1.41,4.21,2.07,6.77,1.99l-.47-5.89c-.12-1.21-.38-3.2-.79-5.98h12.42Z"/></g><g><g class="cls-1"><path class="cls-3" d="M481.42,181.33l-5.51,10.2c-1.48,2.79-3.49,6.7-6.01,11.72-.23,2.73-.54,6.61-.91,11.63-.12,2.68-.31,6.49-.59,11.46h-15c-.08-2.42-.25-6.3-.53-11.63-.16-2.01-.52-5.83-1.08-11.46-1.02-2.09-2.71-5.48-5.1-10.17-1.54-2.85-3.79-6.77-6.74-11.75h21.62c.35,1.27,.97,3.27,1.85,6.01l2.81,7.91c.74-1.8,1.75-4.45,3.02-7.97,.43-1.39,.99-3.37,1.67-5.95h10.49Z"/></g><path class="cls-6" d="M476.42,176.33l-5.51,10.2c-1.48,2.79-3.49,6.7-6.01,11.72-.23,2.73-.54,6.61-.91,11.63-.12,2.68-.31,6.49-.59,11.46h-15c-.08-2.42-.25-6.3-.53-11.63-.16-2.01-.52-5.83-1.08-11.46-1.02-2.09-2.71-5.48-5.1-10.17-1.54-2.85-3.79-6.77-6.74-11.75h21.62c.35,1.27,.97,3.27,1.85,6.01l2.81,7.91c.74-1.8,1.75-4.45,3.02-7.97,.43-1.39,.99-3.37,1.67-5.95h10.49Z"/></g></g></g></svg>