<?xml version="1.0" encoding="UTF-8"?><svg id="Layer_2" xmlns="http://www.w3.org/2000/svg" viewBox="0 0 1143.76 1361.18"><defs><style>.cls-1{fill:none;}.cls-1,.cls-2{stroke-linecap:round;stroke-linejoin:round;stroke-width:5px;}.cls-1,.cls-2,.cls-3{stroke:#38345b;}.cls-2,.cls-3{fill:#38345b;}.cls-3{stroke-miterlimit:10;}</style></defs><g id="Layer_1-2"><path class="cls-3" d="M871.09,286.08c-.24-6.34-8.82-10.63-13.05-4.98-1.38,1.84-1.85,4.26-1.61,6.55,.24,2.3,1.17,4.53,2.63,6.33,1.63,2,4.42,3.49,6.76,2.41,.87-.41,1.56-1.12,2.15-1.87,1.8-2.29,3.23-5.47,3.12-8.44Z"/><path class="cls-3" d="M672.62,13.26c-1.72,2.92-2.59,6.75-1.78,9.96,.84,3.34,3.9,6.23,7.35,6.11,4.41-.16,7.26-4.66,8.83-8.79,.78-2.05,1.44-4.26,1.01-6.4-.3-1.5-1.19-2.9-2.46-3.74-3.97-2.62-9.19-2.29-12.13,1.63-.29,.39-.56,.8-.81,1.23Z"/><path class="cls-3" d="M741.58,245.12c-.46-1.75-1.49-3.24-3.41-3.95-3.24-1.2-6.8,.7-7.65,4.01-.43,1.67-.23,3.45,.22,5.12,.71,2.66,4.1,3.4,6.48,3.39,1.41,0,2.88-.46,3.8-1.53,1.61-1.86,1.12-4.86,.55-7.03Z"/><path class="cls-3" d="M1125.28,33.62c-.46-1.75-1.49-3.24-3.41-3.95-3.24-1.2-6.8,.7-7.65,4.01-.43,1.67-.23,3.45,.22,5.12,.71,2.66,4.1,3.4,6.48,3.39,1.41,0,2.88-.46,3.8-1.53,1.61-1.86,1.12-4.86,.55-7.03Z"/><path class="cls-3" d="M945.88,6.58c-.46-1.75-1.49-3.24-3.41-3.95-3.24-1.2-6.8,.7-7.65,4.01-.43,1.67-.23,3.45,.22,5.12,.71,2.66,4.1,3.4,6.48,3.39,1.41,0,2.88-.46,3.8-1.53,1.61-1.86,1.12-4.86,.55-7.03Z"/><path class="cls-3" d="M825.05,110.61c-2.47-4.58-10.15-6.08-12.23-.29-.81,2.25-.08,4.97,1.75,6.52,1.81,1.54,4.53,1.92,6.81,1.44,1.43-.3,2.84-1.01,3.66-2.22,.73-1.08,.92-2.49,.64-3.76-.13-.6-.34-1.16-.63-1.68Z"/><path class="cls-3" d="M621.24,485.42c-.46-1.75-1.49-3.24-3.41-3.95-3.24-1.2-6.8,.7-7.65,4.01-.43,1.67-.23,3.45,.22,5.12,.71,2.66,4.1,3.4,6.48,3.39,1.41,0,2.88-.46,3.8-1.53,1.61-1.86,1.12-4.86,.55-7.03Z"/><path class="cls-3" d="M1099.87,744.32c-.46-1.75-1.49-3.24-3.41-3.95-3.24-1.2-6.8,.7-7.65,4.01-.43,1.67-.23,3.45,.22,5.12,.71,2.66,4.1,3.4,6.48,3.39,1.41,0,2.88-.46,3.8-1.53,1.61-1.86,1.12-4.86,.55-7.03Z"/><path class="cls-3" d="M676.64,440.96c-1.72,2.92-2.59,6.75-1.78,9.96,.84,3.34,3.9,6.23,7.35,6.11,4.41-.16,7.26-4.66,8.83-8.79,.78-2.05,1.44-4.26,1.01-6.4-.3-1.5-1.19-2.9-2.46-3.74-3.97-2.62-9.19-2.29-12.13,1.63-.29,.39-.56,.8-.81,1.23Z"/><path class="cls-3" d="M758.25,610.38c-.46-1.75-1.49-3.24-3.41-3.95-3.24-1.2-6.8,.7-7.65,4.01-.43,1.67-.23,3.45,.22,5.12,.71,2.66,4.1,3.4,6.48,3.39,1.41,0,2.88-.46,3.8-1.53,1.61-1.86,1.12-4.86,.55-7.03Z"/><path class="cls-3" d="M971.08,503.64c-.46-1.75-1.49-3.24-3.41-3.95-3.24-1.2-6.8,.7-7.65,4.01-.43,1.67-.23,3.45,.22,5.12,.71,2.66,4.1,3.4,6.48,3.39,1.41,0,2.88-.46,3.8-1.53,1.61-1.86,1.12-4.86,.55-7.03Z"/><path class="cls-3" d="M243.52,487.25c.24,6.34,8.82,10.63,13.05,4.98,1.38-1.84,1.85-4.26,1.61-6.55-.24-2.3-1.17-4.53-2.63-6.33-1.63-2-4.42-3.49-6.76-2.41-.87,.41-1.56,1.12-2.15,1.87-1.8,2.29-3.23,5.47-3.12,8.44Z"/><path class="cls-3" d="M441.99,760.07c1.72-2.92,2.59-6.75,1.78-9.96-.84-3.34-3.9-6.23-7.35-6.11-4.41,.16-7.26,4.66-8.83,8.79-.78,2.05-1.44,4.26-1.01,6.4,.3,1.5,1.19,2.9,2.46,3.74,3.97,2.62,9.19,2.29,12.13-1.63,.29-.39,.56-.8,.81-1.23Z"/><path class="cls-3" d="M373.04,528.21c.46,1.75,1.49,3.24,3.41,3.95,3.24,1.2,6.8-.7,7.65-4.01,.43-1.67,.23-3.45-.22-5.12-.71-2.66-4.1-3.4-6.48-3.39-1.41,0-2.88,.46-3.8,1.53-1.61,1.86-1.12,4.86-.55,7.03Z"/><path class="cls-3" d="M29.01,729.47c.46,1.75,1.49,3.24,3.41,3.95,3.24,1.2,6.8-.7,7.65-4.01,.43-1.67,.23-3.45-.22-5.12-.71-2.66-4.1-3.4-6.48-3.39-1.41,0-2.88,.46-3.8,1.53-1.61,1.86-1.12,4.86-.55,7.03Z"/><path class="cls-3" d="M168.74,766.75c.46,1.75,1.49,3.24,3.41,3.95,3.24,1.2,6.8-.7,7.65-4.01,.43-1.67,.23-3.45-.22-5.12-.71-2.66-4.1-3.4-6.48-3.39-1.41,0-2.88,.46-3.8,1.53-1.61,1.86-1.12,4.86-.55,7.03Z"/><path class="cls-3" d="M289.57,662.72c2.47,4.58,10.15,6.08,12.23,.29,.81-2.25,.08-4.97-1.75-6.52-1.81-1.54-4.53-1.92-6.81-1.44-1.43,.3-2.84,1.01-3.66,2.22-.73,1.08-.92,2.49-.64,3.76,.13,.6,.34,1.16,.63,1.68Z"/><path class="cls-3" d="M493.37,287.91c.46,1.75,1.49,3.24,3.41,3.95,3.24,1.2,6.8-.7,7.65-4.01,.43-1.67,.23-3.45-.22-5.12-.71-2.66-4.1-3.4-6.48-3.39-1.41,0-2.88,.46-3.8,1.53-1.61,1.86-1.12,4.86-.55,7.03Z"/><path class="cls-3" d="M30.02,28.53c.46,1.75,1.49,3.24,3.41,3.95,3.24,1.2,6.8-.7,7.65-4.01,.43-1.67,.23-3.45-.22-5.12-.71-2.66-4.1-3.4-6.48-3.39-1.41,0-2.88,.46-3.8,1.53-1.61,1.86-1.12,4.86-.55,7.03Z"/><path class="cls-3" d="M437.97,332.37c1.72-2.92,2.59-6.75,1.78-9.96-.84-3.34-3.9-6.23-7.35-6.11-4.41,.16-7.26,4.66-8.83,8.79-.78,2.05-1.44,4.26-1.01,6.4,.3,1.5,1.19,2.9,2.46,3.74,3.97,2.62,9.19,2.29,12.13-1.63,.29-.39,.56-.8,.81-1.23Z"/><path class="cls-3" d="M356.36,162.96c.46,1.75,1.49,3.24,3.41,3.95,3.24,1.2,6.8-.7,7.65-4.01,.43-1.67,.23-3.45-.22-5.12-.71-2.66-4.1-3.4-6.48-3.39-1.41,0-2.88,.46-3.8,1.53-1.61,1.86-1.12,4.86-.55,7.03Z"/><path class="cls-3" d="M143.53,269.69c.46,1.75,1.49,3.24,3.41,3.95,3.24,1.2,6.8-.7,7.65-4.01,.43-1.67,.23-3.45-.22-5.12-.71-2.66-4.1-3.4-6.48-3.39-1.41,0-2.88,.46-3.8,1.53-1.61,1.86-1.12,4.86-.55,7.03Z"/><path class="cls-3" d="M508.13,28.31c2.47,4.58,10.15,6.08,12.23,.29,.81-2.25,.08-4.97-1.75-6.52-1.81-1.54-4.53-1.92-6.81-1.44-1.43,.3-2.84,1.01-3.66,2.22-.73,1.08-.92,2.49-.64,3.76,.13,.6,.34,1.16,.63,1.68Z"/><path class="cls-2" d="M692.76,71.47c-5.04,8.08-7.08,18.15-6.33,28.14,.52,6.89,1.35,14.02,5.65,19.68,3.97,5.23,9.9,8.93,16.15,10.8,10.2,3.04,25.4,3.8,35.37-.41,19.21-8.1,26.44-32.1,18.02-50.48-8.43-18.4-32.53-29.26-51.66-21.94-7.61,2.91-13.31,7.97-17.2,14.22Z"/><path class="cls-2" d="M825.63,551.37c-5.04,8.08-7.08,18.15-6.33,28.14,.52,6.89,1.35,14.02,5.65,19.68,3.97,5.23,9.9,8.93,16.15,10.8,10.2,3.04,25.4,3.8,35.37-.41,19.21-8.1,26.44-32.1,18.02-50.48-8.43-18.4-32.53-29.26-51.66-21.94-7.61,2.91-13.31,7.97-17.2,14.22Z"/><path class="cls-2" d="M1046.89,168.5c-5.04,8.08-7.08,18.15-6.33,28.14,.52,6.89,1.35,14.02,5.65,19.68,3.97,5.23,9.9,8.93,16.15,10.8,10.2,3.04,25.4,3.8,35.37-.41,19.21-8.1,26.44-32.1,18.02-50.48-8.43-18.4-32.53-29.26-51.66-21.94-7.61,2.91-13.31,7.97-17.2,14.22Z"/><path class="cls-2" d="M659.39,351.49c-5.04,8.08-7.08,18.15-6.33,28.14,.52,6.89,1.35,14.02,5.65,19.68,3.97,5.23,9.9,8.93,16.15,10.8,10.2,3.04,25.4,3.8,35.37-.41,19.21-8.1,26.44-32.1,18.02-50.48-8.43-18.4-32.53-29.26-51.66-21.94-7.61,2.91-13.31,7.97-17.2,14.22Z"/><g><path class="cls-2" d="M594.96,228.89c-9.68,7.35-21.22,19.19-18.74,32.59,1.26,6.8,6.42,12.28,12.24,16.01,15.93,10.24,37.66,10.63,55.83,7.86,19.14-2.92,38.02-10.43,52.79-23.15,10.12-8.71,17.87-20.82,19.05-34.13,.8-8.98-1.78-18.4-7.34-25.54-6.86-8.81-16.81-10.86-27.58-9.74-15.81,1.64-30.25,8.75-44.75,14.72s-28.69,11.74-41.11,21.07c-.13,.1-.27,.2-.4,.3Z"/><path class="cls-2" d="M664.64,196.32c-7.14-3.75-9.6-12.85-9.48-20.91,.04-2.71,.29-5.44,1.15-8.01,1.78-5.34,6.11-9.59,11.12-12.16,4.63-2.38,9.8-3.43,14.95-3.91,7.83-.74,15.48,2.87,19.15,10.01,5.38,10.47-.85,23.88-9.83,30.23"/></g><g><path class="cls-2" d="M713.98,722.43c-9.68,7.35-21.22,19.19-18.74,32.59,1.26,6.8,6.42,12.28,12.24,16.01,15.93,10.24,37.66,10.63,55.83,7.86,19.14-2.92,38.02-10.43,52.79-23.15,10.12-8.71,17.87-20.82,19.05-34.13,.8-8.98-1.78-18.4-7.34-25.54-6.86-8.81-16.81-10.86-27.58-9.74-15.81,1.64-30.25,8.75-44.75,14.72-14.25,5.87-28.69,11.74-41.11,21.07-.13,.1-.27,.2-.4,.3Z"/><path class="cls-2" d="M783.67,689.86c-7.14-3.75-9.6-12.85-9.48-20.91,.04-2.71,.29-5.44,1.15-8.01,1.78-5.34,6.11-9.59,11.12-12.16,4.63-2.38,9.8-3.43,14.95-3.91,7.83-.74,15.48,2.87,19.15,10.01,5.38,10.47-.85,23.88-9.83,30.23"/></g><g><path class="cls-2" d="M919.16,386.82c12.15,.37,28.42,3.33,34.16,15.68,2.92,6.26,1.89,13.73-.68,20.14-7.04,17.57-24.52,30.5-40.92,38.78-17.28,8.72-37.03,13.55-56.43,11.76-13.3-1.23-26.63-6.6-35.31-16.76-5.86-6.85-9.22-16.02-8.83-25.06,.48-11.16,7.4-18.6,16.81-23.93,13.83-7.83,29.72-10.42,44.99-13.95,15.02-3.48,30.18-7.07,45.71-6.67,.17,0,.33,0,.5,.01Z"/><path class="cls-2" d="M843.5,400.7c3.64-7.19,.37-16.03-4.4-22.53-1.6-2.18-3.39-4.26-5.58-5.86-4.55-3.32-10.54-4.27-16.11-3.45-5.15,.75-9.98,2.89-14.45,5.48-6.8,3.94-10.95,11.32-9.79,19.26,1.69,11.65,14.54,18.96,25.54,18.92"/></g><path class="cls-2" d="M859.47,134.85c-4.72,4.16-7.57,9.98-11,15.24-3.67,5.62-8.16,10.76-13.64,14.63-10.15,7.15-22.87,9.43-34.13,14.67s-22.03,15.7-20.69,28.04c.92,8.48,7.6,15.54,15.43,18.92,7.83,3.38,16.66,3.63,25.16,2.99,25.8-1.93,52.56-13.07,65.72-35.34,6.12-10.37,8.88-22.32,11.55-34.06,1.56-6.84,2.77-15.11-1.32-21.34-4.56-6.94-14.94-9.49-22.74-9.18-5.27,.21-10.33,1.91-14.33,5.43Z"/><path class="cls-1" d="M884.89,129.93c-.76-15.72,5.89-32.96,20.09-39.76,10.87-5.2,23.96-3.47,35.08-8.12,15.92-6.65,24.19-27.37,17.24-43.15"/><path class="cls-1" d="M896.48,137.83c-1.89-11.35,6.07-22.47,16.13-28.05s21.86-6.84,33.28-8.17,23.24-2.98,32.95-9.15c9.25-5.88,15.86-15.75,17.78-26.53"/><path class="cls-1" d="M873.72,129.4c-3.24-3.8-9.28-3.63-13.24-6.67-4.92-3.77-5.05-11.44-2.27-16.98s7.73-9.59,12.08-14c3.67-3.72,7.04-7.88,8.83-12.78s1.78-10.68-1.02-15.08c-4.43-6.97-14.99-9.76-16.44-17.89"/><path class="cls-1" d="M899.31,152.02c.78-6.97,7.94-11.76,14.91-12.53s13.88,1.44,20.69,3.13,14.21,2.84,20.68,.11c5.4-2.29,9.38-6.98,12.76-11.77,1.61-2.28,3.16-4.64,5.24-6.5,4.53-4.02,10.88-5.09,16.87-5.99"/><path class="cls-2" d="M978.9,667.91c-4.72,4.16-7.57,9.98-11,15.24-3.67,5.62-8.16,10.76-13.64,14.63-10.15,7.15-22.87,9.43-34.13,14.67s-22.03,15.7-20.69,28.04c.92,8.48,7.6,15.54,15.43,18.92,7.83,3.38,16.66,3.63,25.16,2.99,25.8-1.93,52.56-13.07,65.72-35.34,6.12-10.37,8.88-22.32,11.55-34.06,1.56-6.84,2.77-15.11-1.32-21.34-4.56-6.94-14.94-9.49-22.74-9.18-5.27,.21-10.33,1.91-14.33,5.43Z"/><path class="cls-1" d="M1004.32,662.99c-.76-15.72,5.89-32.96,20.09-39.76,10.87-5.2,23.96-3.47,35.08-8.12,15.92-6.65,24.19-27.37,17.24-43.15"/><path class="cls-1" d="M1015.91,670.89c-1.89-11.35,6.07-22.47,16.13-28.05,10.06-5.57,21.86-6.84,33.28-8.17s23.24-2.98,32.95-9.15c9.25-5.88,15.86-15.75,17.78-26.53"/><path class="cls-1" d="M993.15,662.46c-3.24-3.8-9.28-3.63-13.24-6.67-4.92-3.77-5.05-11.44-2.27-16.98s7.73-9.59,12.08-14c3.67-3.72,7.04-7.88,8.83-12.78s1.78-10.68-1.02-15.08c-4.43-6.97-14.99-9.76-16.44-17.89"/><path class="cls-1" d="M1018.74,685.08c.78-6.97,7.94-11.76,14.91-12.53s13.88,1.44,20.69,3.13,14.21,2.84,20.68,.11c5.4-2.29,9.38-6.98,12.76-11.77,1.61-2.28,3.16-4.64,5.24-6.5,4.53-4.02,10.88-5.09,16.87-5.99"/><path class="cls-2" d="M672.6,621.88c5.21-3.53,8.75-8.95,12.82-13.75,4.34-5.12,9.44-9.66,15.36-12.81,10.96-5.83,23.87-6.5,35.7-10.29s23.81-12.82,24.03-25.24c.15-8.53-5.6-16.37-12.95-20.7-7.35-4.33-16.07-5.68-24.59-6.11-25.84-1.3-53.78,6.41-69.61,26.86-7.37,9.52-11.6,21.04-15.71,32.35-2.4,6.59-4.63,14.65-1.35,21.34,3.66,7.46,13.63,11.28,21.41,11.94,5.26,.45,10.49-.61,14.89-3.6Z"/><path class="cls-1" d="M646.76,623.59c-1.2,15.7-9.96,31.97-24.9,36.94-11.43,3.8-24.21,.46-35.82,3.68-16.62,4.61-27.42,24.13-22.49,40.66"/><path class="cls-1" d="M636.24,614.31c.45,11.49-8.83,21.54-19.51,25.81-10.68,4.27-22.54,4.06-34.04,3.95-11.5-.11-23.43,.05-33.84,4.96-9.91,4.68-17.7,13.64-20.95,24.11"/><path class="cls-1" d="M657.78,625.51c2.74,4.18,8.76,4.76,12.31,8.27,4.41,4.36,3.59,11.98,.13,17.13s-8.87,8.55-13.74,12.39c-4.1,3.23-7.97,6.94-10.35,11.58s-3.1,10.37-.87,15.09c3.53,7.47,13.65,11.55,14.07,19.81"/><path class="cls-1" d="M635.21,599.87c-1.64,6.82-9.34,10.68-16.36,10.57s-13.59-3.16-20.14-5.69c-6.55-2.53-13.75-4.6-20.5-2.69-5.64,1.59-10.18,5.75-14.13,10.08-1.88,2.06-3.71,4.21-6.01,5.79-4.99,3.43-11.43,3.69-17.49,3.84"/><path class="cls-2" d="M575.43,1270.79c5.21-3.53,8.75-8.95,12.82-13.75,4.34-5.12,9.44-9.66,15.36-12.81,10.96-5.83,23.87-6.5,35.7-10.29s23.81-12.82,24.03-25.24c.15-8.53-5.6-16.37-12.95-20.7-7.35-4.33-16.07-5.68-24.59-6.11-25.84-1.3-53.78,6.41-69.61,26.86-7.37,9.52-11.6,21.04-15.71,32.35-2.4,6.59-4.63,14.65-1.35,21.34,3.66,7.46,13.63,11.28,21.41,11.94,5.26,.45,10.49-.61,14.89-3.6Z"/><path class="cls-1" d="M549.59,1272.5c-1.2,15.7-9.96,31.97-24.9,36.94-11.43,3.8-24.21,.46-35.82,3.68-16.62,4.61-27.42,24.13-22.49,40.66"/><path class="cls-1" d="M539.08,1263.21c.45,11.49-8.83,21.54-19.51,25.81-10.68,4.27-22.54,4.06-34.04,3.95-11.5-.11-23.43,.05-33.84,4.96-9.91,4.68-17.7,13.64-20.95,24.11"/><path class="cls-1" d="M560.61,1274.42c2.74,4.18,8.76,4.76,12.31,8.27,4.41,4.36,3.59,11.98,.13,17.13s-8.87,8.55-13.74,12.39c-4.1,3.23-7.97,6.94-10.35,11.58s-3.1,10.37-.87,15.09c3.53,7.47,13.65,11.55,14.07,19.81"/><path class="cls-1" d="M538.04,1248.78c-1.64,6.82-9.34,10.68-16.36,10.57s-13.59-3.16-20.14-5.69c-6.55-2.53-13.75-4.6-20.5-2.69-5.64,1.59-10.18,5.75-14.13,10.08-1.88,2.06-3.71,4.21-6.01,5.79-4.99,3.43-11.43,3.69-17.49,3.84"/><path class="cls-2" d="M1059.95,371.98c-2.04-5.95-6.34-10.8-9.9-15.99-3.79-5.53-6.84-11.65-8.32-18.19-2.74-12.11,0-24.74-.54-37.15s-6.11-26.35-18.03-29.82c-8.19-2.39-17.26,1.1-23.38,7.05-6.11,5.95-9.71,14.01-12.36,22.12-8.05,24.58-7.96,53.57,7.61,74.23,7.25,9.61,17.25,16.72,27.08,23.67,5.73,4.05,12.92,8.32,20.23,6.91,8.15-1.57,14.47-10.19,17.15-17.52,1.82-4.95,2.17-10.28,.45-15.32Z"/><path class="cls-1" d="M1054.8,397.36c14.83,5.29,28.22,18.02,29.09,33.74,.66,12.03-5.93,23.48-5.87,35.53,.08,17.25,16.07,32.8,33.32,32.39"/><path class="cls-1" d="M1043.08,405.07c11.21,2.58,18.46,14.18,19.78,25.61,1.31,11.43-2.01,22.81-5.14,33.88-3.13,11.07-6.11,22.62-4.11,33.95,1.91,10.79,8.51,20.67,17.75,26.55"/><path class="cls-1" d="M1059.56,387.24c4.75-1.55,6.89-7.2,11.21-9.7,5.36-3.11,12.51-.31,16.56,4.38,4.05,4.68,5.92,10.8,8.34,16.51,2.04,4.81,4.6,9.52,8.45,13.03,3.85,3.52,9.19,5.71,14.33,4.8,8.14-1.44,14.74-10.14,22.81-8.37"/><path class="cls-1" d="M1028.88,402.27c6.15,3.38,7.85,11.82,5.9,18.56-1.95,6.74-6.63,12.28-10.79,17.94-4.16,5.65-8.05,12.06-7.99,19.07,.05,5.86,2.87,11.33,6.01,16.29,1.49,2.36,3.09,4.69,4.01,7.32,1.99,5.72,.56,12-.89,17.88"/><path class="cls-2" d="M648.39,77.89c-.24-6.34-8.82-10.63-13.05-4.98-1.38,1.84-1.85,4.26-1.61,6.55,.24,2.3,1.17,4.53,2.63,6.33,1.63,2,4.42,3.49,6.76,2.41,.87-.41,1.56-1.12,2.15-1.87,1.8-2.29,3.23-5.47,3.12-8.44Z"/><path class="cls-2" d="M816.06,25.22c-1.22-3.2-4.62-5.43-8.17-6.08-3.75-.68-6.29,1.51-6.99,5.13-.45,2.32-.24,4.81,.8,6.93,1.62,3.31,5.03,5.22,8.76,4.32,2.8-.67,5.13-2.99,5.82-5.78,.41-1.65,.28-3.18-.23-4.53Z"/><path class="cls-2" d="M947.95,347.12c-1.22-3.2-4.62-5.43-8.17-6.08-3.75-.68-6.29,1.51-6.99,5.13-.45,2.32-.24,4.81,.8,6.93,1.62,3.31,5.03,5.22,8.76,4.32,2.8-.67,5.13-2.99,5.82-5.78,.41-1.65,.28-3.18-.23-4.53Z"/><path class="cls-2" d="M750.45,292.17c-1.72,2.92-2.59,6.75-1.78,9.96,.84,3.34,3.9,6.23,7.35,6.11,4.41-.16,7.26-4.66,8.83-8.79,.78-2.05,1.44-4.26,1.01-6.4-.3-1.5-1.19-2.9-2.46-3.74-3.97-2.62-9.19-2.29-12.13,1.63-.29,.39-.56,.8-.81,1.23Z"/><path class="cls-2" d="M919.19,213.5c-.46-1.75-1.49-3.24-3.41-3.95-3.24-1.2-6.8,.7-7.65,4.01-.43,1.67-.23,3.45,.22,5.12,.71,2.66,4.1,3.4,6.48,3.39,1.41,0,2.88-.46,3.8-1.53,1.61-1.86,1.12-4.86,.55-7.03Z"/><path class="cls-2" d="M758.78,172.89c-2.47-4.58-10.15-6.08-12.23-.29-.81,2.25-.08,4.97,1.75,6.52,1.81,1.54,4.53,1.92,6.81,1.44,1.43-.3,2.84-1.01,3.66-2.22,.73-1.08,.92-2.49,.64-3.76-.13-.6-.34-1.16-.63-1.68Z"/><path class="cls-2" d="M1046.31,91.87c-2.47-4.58-10.15-6.08-12.23-.29-.81,2.25-.08,4.97,1.75,6.52,1.81,1.54,4.53,1.92,6.81,1.44,1.43-.3,2.84-1.01,3.66-2.22,.73-1.08,.92-2.49,.64-3.76-.13-.6-.34-1.16-.63-1.68Z"/><path class="cls-2" d="M580.97,309.4c-2.66-1.54-6.04-1.83-8.98-.93-1.51,.46-2.95,1.26-3.97,2.46-1.69,1.98-2.03,4.92-1.11,7.36s2.97,4.35,5.35,5.41c3.18,1.4,7.13,1.26,9.93-.8,3.66-2.69,4.13-7.72,1.42-11.21-.73-.94-1.63-1.71-2.64-2.29Z"/><path class="cls-2" d="M899.54,668.4c-2.92,5.64,2.44,13.59,8.9,10.76,2.11-.92,3.71-2.8,4.63-4.91,.93-2.12,1.22-4.52,.83-6.8-.43-2.54-2.12-5.22-4.69-5.42-.96-.08-1.91,.21-2.8,.57-2.69,1.11-5.51,3.16-6.87,5.8Z"/><path class="cls-2" d="M694.48,658.66c-.52,3.39,1.34,7.01,4.11,9.31,2.92,2.44,6.22,1.79,8.61-1.02,1.53-1.8,2.58-4.06,2.72-6.43,.22-3.68-1.8-7.02-5.49-8.08-2.76-.8-5.94,.07-7.92,2.16-1.17,1.24-1.81,2.62-2.03,4.05Z"/><path class="cls-2" d="M1113.15,311.44c2.94-1.69,5.58-4.59,6.46-7.79,.91-3.32-.32-7.35-3.38-8.94-3.91-2.03-8.62,.48-12.01,3.29-1.69,1.4-3.35,2.99-4.03,5.07-.47,1.45-.39,3.11,.3,4.47,2.16,4.24,6.87,6.53,11.36,4.56,.44-.19,.88-.42,1.31-.66Z"/><path class="cls-2" d="M768.25,442.48c-.46,1.75-.3,3.55,1.02,5.12,2.23,2.64,6.26,2.74,8.63,.28,1.2-1.24,1.9-2.89,2.33-4.56,.7-2.66-1.89-4.98-3.97-6.15-1.23-.69-2.74-1.02-4.07-.54-2.32,.83-3.37,3.67-3.95,5.84Z"/><path class="cls-2" d="M928.32,565.37c-.11,5.2,5.84,10.3,10.49,6.28,1.81-1.56,2.52-4.29,1.69-6.53-.82-2.23-3-3.91-5.22-4.61-1.39-.44-2.97-.52-4.28,.13-1.17,.58-2.02,1.71-2.41,2.96-.18,.58-.27,1.18-.28,1.77Z"/><path class="cls-2" d="M593.93,395.09c-.11,5.2,5.84,10.3,10.49,6.28,1.81-1.56,2.52-4.29,1.69-6.53-.82-2.23-3-3.91-5.22-4.61-1.39-.44-2.97-.52-4.28,.13-1.17,.58-2.02,1.71-2.41,2.96-.18,.58-.27,1.18-.28,1.77Z"/><path class="cls-2" d="M1124.54,562.63c1.55,2.65,4.35,4.57,7.35,5.23,1.54,.34,3.18,.36,4.67-.18,2.45-.89,4.2-3.28,4.6-5.85s-.44-5.25-1.99-7.34c-2.08-2.79-5.58-4.61-9.03-4.2-4.51,.53-7.4,4.67-6.76,9.06,.17,1.18,.58,2.29,1.16,3.29Z"/><path class="cls-2" d="M421.85,701.86c5.04-8.08,7.08-18.15,6.33-28.14-.52-6.89-1.35-14.02-5.65-19.68-3.97-5.23-9.9-8.93-16.15-10.8-10.2-3.04-25.4-3.8-35.37,.41-19.21,8.1-26.44,32.1-18.02,50.48,8.43,18.4,32.53,29.26,51.66,21.94,7.61-2.91,13.31-7.97,17.2-14.22Z"/><path class="cls-2" d="M288.99,221.96c5.04-8.08,7.08-18.15,6.33-28.14-.52-6.89-1.35-14.02-5.65-19.68-3.97-5.23-9.9-8.93-16.15-10.8-10.2-3.04-25.4-3.8-35.37,.41-19.21,8.1-26.44,32.1-18.02,50.48,8.43,18.4,32.53,29.26,51.66,21.94,7.61-2.91,13.31-7.97,17.2-14.22Z"/><path class="cls-2" d="M87.23,610.88c5.04-8.08,7.08-18.15,6.33-28.14-.52-6.89-1.35-14.02-5.65-19.68-3.97-5.23-9.9-8.93-16.15-10.8-10.2-3.04-25.4-3.8-35.37,.41-19.21,8.1-26.44,32.1-18.02,50.48,8.43,18.4,32.53,29.26,51.66,21.94,7.61-2.91,13.31-7.97,17.2-14.22Z"/><path class="cls-2" d="M455.22,421.84c5.04-8.08,7.08-18.15,6.33-28.14-.52-6.89-1.35-14.02-5.65-19.68-3.97-5.23-9.9-8.93-16.15-10.8-10.2-3.04-25.4-3.8-35.37,.41-19.21,8.1-26.44,32.1-18.02,50.48,8.43,18.4,32.53,29.26,51.66,21.94,7.61-2.91,13.31-7.97,17.2-14.22Z"/><g><path class="cls-2" d="M457.49,495.33c-9.92,7.01-21.86,18.46-19.84,31.93,1.02,6.83,6,12.49,11.68,16.42,15.57,10.77,37.28,11.91,55.53,9.76,19.23-2.26,38.36-9.13,53.55-21.33,10.42-8.37,18.57-20.2,20.2-33.46,1.1-8.95-1.15-18.45-6.47-25.77-6.56-9.04-16.43-11.42-27.23-10.68-15.85,1.1-30.53,7.71-45.22,13.19s-29.07,10.76-41.8,19.66c-.14,.1-.27,.19-.41,.29Z"/><path class="cls-2" d="M528.24,465.15c-7.01-3.99-9.16-13.16-8.76-21.22,.13-2.7,.48-5.43,1.42-7.96,1.96-5.28,6.43-9.37,11.53-11.77,4.71-2.22,9.92-3.09,15.08-3.4,7.85-.47,15.38,3.4,18.8,10.66,5.02,10.64-1.66,23.83-10.85,29.88"/></g><g><path class="cls-2" d="M283.15,80.15c-9.68,7.35-21.22,19.19-18.74,32.59,1.26,6.8,6.42,12.28,12.24,16.01,15.93,10.24,37.66,10.63,55.83,7.86,19.14-2.92,38.02-10.43,52.79-23.15,10.12-8.71,17.87-20.82,19.05-34.13,.8-8.98-1.78-18.4-7.34-25.54-6.86-8.81-16.81-10.86-27.58-9.74-15.81,1.64-30.25,8.75-44.75,14.72s-28.69,11.74-41.11,21.07c-.13,.1-.27,.2-.4,.3Z"/><path class="cls-2" d="M352.83,47.58c-7.14-3.75-9.6-12.85-9.48-20.91,.04-2.71,.29-5.44,1.15-8.01,1.78-5.34,6.11-9.59,11.12-12.16,4.63-2.38,9.8-3.43,14.95-3.91,7.83-.74,15.48,2.87,19.15,10.01,5.38,10.47-.85,23.88-9.83,30.23"/></g><g><path class="cls-2" d="M308.39,370.25c8.68,8.5,18.65,21.69,14.52,34.67-2.09,6.59-7.91,11.38-14.14,14.36-17.08,8.17-38.69,5.84-56.37,.83-18.63-5.28-36.42-15.1-49.49-29.56-8.96-9.91-15.13-22.89-14.64-36.24,.33-9.01,4.07-18.03,10.47-24.42,7.91-7.88,18.04-8.67,28.58-6.22,15.48,3.6,28.92,12.46,42.56,20.2,13.4,7.61,27,15.23,38.15,26.04,.12,.12,.24,.23,.36,.35Z"/><path class="cls-2" d="M243.31,329.23c7.55-2.83,11.13-11.55,12.02-19.56,.3-2.69,.39-5.43-.14-8.09-1.1-5.52-4.86-10.27-9.52-13.45-4.3-2.94-9.3-4.63-14.35-5.75-7.67-1.71-15.72,.92-20.25,7.54-6.64,9.71-2.14,23.8,5.98,31.22"/></g><path class="cls-2" d="M255.15,638.48c4.72-4.16,7.57-9.98,11-15.24,3.67-5.62,8.16-10.76,13.64-14.63,10.15-7.15,22.87-9.43,34.13-14.67,11.26-5.23,22.03-15.7,20.69-28.04-.92-8.48-7.6-15.54-15.43-18.92s-16.66-3.63-25.16-2.99c-25.8,1.93-52.56,13.07-65.72,35.34-6.12,10.37-8.88,22.32-11.55,34.06-1.56,6.84-2.77,15.11,1.32,21.34,4.56,6.94,14.94,9.49,22.74,9.18,5.27-.21,10.33-1.91,14.33-5.43Z"/><path class="cls-1" d="M229.72,643.4c.76,15.72-5.89,32.96-20.09,39.76-10.87,5.2-23.96,3.47-35.08,8.12-15.92,6.65-24.19,27.37-17.24,43.15"/><path class="cls-1" d="M218.13,635.5c1.89,11.35-6.07,22.47-16.13,28.05-10.06,5.57-21.86,6.84-33.28,8.17-11.42,1.33-23.24,2.98-32.95,9.15-9.25,5.88-15.86,15.75-17.78,26.53"/><path class="cls-1" d="M240.9,643.94c3.24,3.8,9.28,3.63,13.24,6.67,4.92,3.77,5.05,11.44,2.27,16.98s-7.73,9.59-12.08,14c-3.67,3.72-7.04,7.88-8.83,12.78s-1.78,10.68,1.02,15.08c4.43,6.97,14.99,9.76,16.44,17.89"/><path class="cls-1" d="M215.3,621.31c-.78,6.97-7.94,11.76-14.91,12.53s-13.88-1.44-20.69-3.13-14.21-2.84-20.68-.11c-5.4,2.29-9.38,6.98-12.76,11.77-1.61,2.28-3.16,4.64-5.24,6.5-4.53,4.02-10.88,5.09-16.87,5.99"/><path class="cls-2" d="M155.61,105.96c4.72-4.16,7.57-9.98,11-15.24,3.67-5.62,8.16-10.76,13.64-14.63,10.15-7.15,22.87-9.43,34.13-14.67s22.03-15.7,20.69-28.04c-.92-8.48-7.6-15.54-15.43-18.92-7.83-3.38-16.66-3.63-25.16-2.99-25.8,1.93-52.56,13.07-65.72,35.34-6.12,10.37-8.88,22.32-11.55,34.06-1.56,6.84-2.77,15.11,1.32,21.34,4.56,6.94,14.94,9.49,22.74,9.18,5.27-.21,10.33-1.91,14.33-5.43Z"/><path class="cls-1" d="M130.18,110.88c.76,15.72-5.89,32.96-20.09,39.76-10.87,5.2-23.96,3.47-35.08,8.12-15.92,6.65-24.19,27.37-17.24,43.15"/><path class="cls-1" d="M118.59,102.98c1.89,11.35-6.07,22.47-16.13,28.05-10.06,5.57-21.86,6.84-33.28,8.17s-23.24,2.98-32.95,9.15c-9.25,5.88-15.86,15.75-17.78,26.53"/><path class="cls-1" d="M141.36,111.42c3.24,3.8,9.28,3.63,13.24,6.67,4.92,3.77,5.05,11.44,2.27,16.98s-7.73,9.59-12.08,14c-3.67,3.72-7.04,7.88-8.83,12.78s-1.78,10.68,1.02,15.08c4.43,6.97,14.99,9.76,16.44,17.89"/><path class="cls-1" d="M115.77,88.79c-.78,6.97-7.94,11.76-14.91,12.53s-13.88-1.44-20.69-3.13-14.21-2.84-20.68-.11c-5.4,2.29-9.38,6.98-12.76,11.77-1.61,2.28-3.16,4.64-5.24,6.5-4.53,4.02-10.88,5.09-16.87,5.99"/><path class="cls-2" d="M479,173.21c-5.21,3.53-8.75,8.95-12.82,13.75-4.34,5.12-9.44,9.66-15.36,12.81-10.96,5.83-23.87,6.5-35.7,10.29s-23.81,12.82-24.03,25.24c-.15,8.53,5.6,16.37,12.95,20.7,7.35,4.33,16.07,5.68,24.59,6.11,25.84,1.3,53.78-6.41,69.61-26.86,7.37-9.52,11.6-21.04,15.71-32.35,2.4-6.59,4.63-14.65,1.35-21.34-3.66-7.46-13.63-11.28-21.41-11.94-5.26-.45-10.49,.61-14.89,3.6Z"/><path class="cls-1" d="M504.84,171.51c1.2-15.7,9.96-31.97,24.9-36.94,11.43-3.8,24.21-.46,35.82-3.68,16.62-4.61,27.42-24.13,22.49-40.66"/><path class="cls-1" d="M515.35,180.79c-.45-11.49,8.83-21.54,19.51-25.81,10.68-4.27,22.54-4.06,34.04-3.95,11.5,.11,23.43-.05,33.84-4.96,9.91-4.68,17.7-13.64,20.95-24.11"/><path class="cls-1" d="M493.82,169.58c-2.74-4.18-8.76-4.76-12.31-8.27-4.41-4.36-3.59-11.98-.13-17.13,3.45-5.14,8.87-8.55,13.74-12.39,4.1-3.23,7.97-6.94,10.35-11.58s3.1-10.37,.87-15.09c-3.53-7.47-13.65-11.55-14.07-19.81"/><path class="cls-1" d="M516.38,195.22c1.64-6.82,9.34-10.68,16.36-10.57s13.59,3.16,20.14,5.69c6.55,2.53,13.75,4.6,20.5,2.69,5.64-1.59,10.18-5.75,14.13-10.08,1.88-2.06,3.71-4.21,6.01-5.79,4.99-3.43,11.43-3.69,17.49-3.84"/><path class="cls-2" d="M94.76,446.34c2.04,5.95,6.34,10.8,9.9,15.99,3.79,5.53,6.84,11.65,8.32,18.19,2.74,12.11,0,24.74,.54,37.15s6.11,26.35,18.03,29.82c8.19,2.39,17.26-1.1,23.38-7.05,6.11-5.95,9.71-14.01,12.36-22.12,8.05-24.58,7.96-53.57-7.61-74.23-7.25-9.61-17.25-16.72-27.08-23.67-5.73-4.05-12.92-8.32-20.23-6.91-8.15,1.57-14.47,10.19-17.15,17.52-1.82,4.95-2.17,10.28-.45,15.32Z"/><path class="cls-1" d="M99.91,420.96c-14.83-5.29-28.22-18.02-29.09-33.74-.66-12.03,5.93-23.48,5.87-35.53-.08-17.25-16.07-32.8-33.32-32.39"/><path class="cls-1" d="M111.63,413.26c-11.21-2.58-18.46-14.18-19.78-25.61-1.31-11.43,2.01-22.81,5.14-33.88,3.13-11.07,6.11-22.62,4.11-33.95-1.91-10.79-8.51-20.67-17.75-26.55"/><path class="cls-1" d="M95.15,431.09c-4.75,1.55-6.89,7.2-11.21,9.7-5.36,3.11-12.51,.31-16.56-4.38-4.05-4.68-5.92-10.8-8.34-16.51-2.04-4.81-4.6-9.52-8.45-13.03s-9.19-5.71-14.33-4.8c-8.14,1.44-14.74,10.14-22.81,8.37"/><path class="cls-1" d="M125.83,416.06c-6.15-3.38-7.85-11.82-5.9-18.56,1.95-6.74,6.63-12.28,10.79-17.94,4.16-5.65,8.05-12.06,7.99-19.07-.05-5.86-2.87-11.33-6.01-16.29-1.49-2.36-3.09-4.69-4.01-7.32-1.99-5.72-.56-12,.89-17.88"/><path class="cls-2" d="M466.22,695.44c.24,6.34,8.82,10.63,13.05,4.98,1.38-1.84,1.85-4.26,1.61-6.55-.24-2.3-1.17-4.53-2.63-6.33-1.63-2-4.42-3.49-6.76-2.41-.87,.41-1.56,1.12-2.15,1.87-1.8,2.29-3.23,5.47-3.12,8.44Z"/><path class="cls-2" d="M454.35,614.04c.24,6.34,8.82,10.63,13.05,4.98,1.38-1.84,1.85-4.26,1.61-6.55-.24-2.3-1.17-4.53-2.63-6.33-1.63-2-4.42-3.49-6.76-2.41-.87,.41-1.56,1.12-2.15,1.87-1.8,2.29-3.23,5.47-3.12,8.44Z"/><path class="cls-2" d="M298.55,748.11c1.22,3.2,4.62,5.43,8.17,6.08,3.75,.68,6.29-1.51,6.99-5.13,.45-2.32,.24-4.81-.8-6.93-1.62-3.31-5.03-5.22-8.76-4.32-2.8,.67-5.13,2.99-5.82,5.78-.41,1.65-.28,3.18,.23,4.53Z"/><path class="cls-2" d="M166.66,426.21c1.22,3.2,4.62,5.43,8.17,6.08,3.75,.68,6.29-1.51,6.99-5.13,.45-2.32,.24-4.81-.8-6.93-1.62-3.31-5.03-5.22-8.76-4.32-2.8,.67-5.13,2.99-5.82,5.78-.41,1.65-.28,3.18,.23,4.53Z"/><path class="cls-2" d="M364.16,481.16c1.72-2.92,2.59-6.75,1.78-9.96-.84-3.34-3.9-6.23-7.35-6.11-4.41,.16-7.26,4.66-8.83,8.79-.78,2.05-1.44,4.26-1.01,6.4,.3,1.5,1.19,2.9,2.46,3.74,3.97,2.62,9.19,2.29,12.13-1.63,.29-.39,.56-.8,.81-1.23Z"/><path class="cls-2" d="M195.42,559.83c.46,1.75,1.49,3.24,3.41,3.95,3.24,1.2,6.8-.7,7.65-4.01,.43-1.67,.23-3.45-.22-5.12-.71-2.66-4.1-3.4-6.48-3.39-1.41,0-2.88,.46-3.8,1.53-1.61,1.86-1.12,4.86-.55,7.03Z"/><path class="cls-2" d="M355.83,600.44c2.47,4.58,10.15,6.08,12.23,.29,.81-2.25,.08-4.97-1.75-6.52-1.81-1.54-4.53-1.92-6.81-1.44-1.43,.3-2.84,1.01-3.66,2.22-.73,1.08-.92,2.49-.64,3.76,.13,.6,.34,1.16,.63,1.68Z"/><path class="cls-2" d="M68.31,681.46c2.47,4.58,10.15,6.08,12.23,.29,.81-2.25,.08-4.97-1.75-6.52-1.81-1.54-4.53-1.92-6.81-1.44-1.43,.3-2.84,1.01-3.66,2.22-.73,1.08-.92,2.49-.64,3.76,.13,.6,.34,1.16,.63,1.68Z"/><path class="cls-2" d="M580.25,759.78c2.66,1.54,6.04,1.83,8.98,.93,1.51-.46,2.95-1.26,3.97-2.46,1.69-1.98,2.03-4.92,1.11-7.36s-2.97-4.35-5.35-5.41c-3.18-1.4-7.13-1.26-9.93,.8-3.66,2.69-4.13,7.72-1.42,11.21,.73,.94,1.63,1.71,2.64,2.29Z"/><path class="cls-2" d="M215.07,104.93c2.92-5.64-2.44-13.59-8.9-10.76-2.11,.92-3.71,2.8-4.63,4.91-.93,2.12-1.22,4.52-.83,6.8,.43,2.54,2.12,5.22,4.69,5.42,.96,.08,1.91-.21,2.8-.57,2.69-1.11,5.51-3.16,6.87-5.8Z"/><path class="cls-2" d="M451.76,76.97c.52-3.39-1.34-7.01-4.11-9.31-2.92-2.44-6.22-1.79-8.61,1.02-1.53,1.8-2.58,4.06-2.72,6.43-.22,3.68,1.8,7.02,5.49,8.08,2.76,.8,5.94-.07,7.92-2.16,1.17-1.24,1.81-2.62,2.03-4.05Z"/><path class="cls-2" d="M22.78,474.01c-2.94,1.69-5.58,4.59-6.46,7.79-.91,3.32,.32,7.35,3.38,8.94,3.91,2.03,8.62-.48,12.01-3.29,1.69-1.4,3.35-2.99,4.03-5.07,.47-1.45,.39-3.11-.3-4.47-2.16-4.24-6.87-6.53-11.36-4.56-.44,.19-.88,.42-1.31,.66Z"/><path class="cls-2" d="M346.36,330.86c.46-1.75,.3-3.55-1.02-5.12-2.23-2.64-6.26-2.74-8.63-.28-1.2,1.24-1.9,2.89-2.33,4.56-.7,2.66,1.89,4.98,3.97,6.15,1.23,.69,2.74,1.02,4.07,.54,2.32-.83,3.37-3.67,3.95-5.84Z"/><path class="cls-2" d="M186.29,207.96c.11-5.2-5.84-10.3-10.49-6.28-1.81,1.56-2.52,4.29-1.69,6.53,.82,2.23,3,3.91,5.22,4.61,1.39,.44,2.97,.52,4.28-.13,1.17-.58,2.02-1.71,2.41-2.96,.18-.58,.27-1.18,.28-1.77Z"/><path class="cls-2" d="M520.68,378.25c.11-5.2-5.84-10.3-10.49-6.28-1.81,1.56-2.52,4.29-1.69,6.53,.82,2.23,3,3.91,5.22,4.61,1.39,.44,2.97,.52,4.28-.13,1.17-.58,2.02-1.71,2.41-2.96,.18-.58,.27-1.18,.28-1.77Z"/><path class="cls-2" d="M51.11,243.78c-1.55-2.65-4.35-4.57-7.35-5.23-1.54-.34-3.18-.36-4.67,.18-2.45,.89-4.2,3.28-4.6,5.85s.44,5.25,1.99,7.34c2.08,2.79,5.58,4.61,9.03,4.2,4.51-.53,7.4-4.67,6.76-9.06-.17-1.18-.58-2.29-1.16-3.29Z"/><path class="cls-3" d="M878.45,1127.39c-.24-6.34-8.82-10.63-13.05-4.98-1.38,1.84-1.85,4.26-1.61,6.55,.24,2.3,1.17,4.53,2.63,6.33,1.63,2,4.42,3.49,6.76,2.41,.87-.41,1.56-1.12,2.15-1.87,1.8-2.29,3.23-5.47,3.12-8.44Z"/><path class="cls-3" d="M661.67,789.75c-1.72,2.92-2.59,6.75-1.78,9.96,.84,3.34,3.9,6.23,7.35,6.11,4.41-.16,7.26-4.66,8.83-8.79,.78-2.05,1.44-4.26,1.01-6.4-.3-1.5-1.19-2.9-2.46-3.74-3.97-2.62-9.19-2.29-12.13,1.63-.29,.39-.56,.8-.81,1.23Z"/><path class="cls-3" d="M730.63,1021.61c-.46-1.75-1.49-3.24-3.41-3.95-3.24-1.2-6.8,.7-7.65,4.01-.43,1.67-.23,3.45,.22,5.12,.71,2.66,4.1,3.4,6.48,3.39,1.41,0,2.88-.46,3.8-1.53,1.61-1.86,1.12-4.86,.55-7.03Z"/><path class="cls-3" d="M1114.34,810.12c-.46-1.75-1.49-3.24-3.41-3.95-3.24-1.2-6.8,.7-7.65,4.01-.43,1.67-.23,3.45,.22,5.12,.71,2.66,4.1,3.4,6.48,3.39,1.41,0,2.88-.46,3.8-1.53,1.61-1.86,1.12-4.86,.55-7.03Z"/><path class="cls-3" d="M934.93,783.07c-.46-1.75-1.49-3.24-3.41-3.95-3.24-1.2-6.8,.7-7.65,4.01-.43,1.67-.23,3.45,.22,5.12,.71,2.66,4.1,3.4,6.48,3.39,1.41,0,2.88-.46,3.8-1.53,1.61-1.86,1.12-4.86,.55-7.03Z"/><path class="cls-3" d="M814.1,887.1c-2.47-4.58-10.15-6.08-12.23-.29-.81,2.25-.08,4.97,1.75,6.52,1.81,1.54,4.53,1.92,6.81,1.44,1.43-.3,2.84-1.01,3.66-2.22,.73-1.08,.92-2.49,.64-3.76-.13-.6-.34-1.16-.63-1.68Z"/><path class="cls-3" d="M640.5,1322.62c-.46-1.75-1.49-3.24-3.41-3.95-3.24-1.2-6.8,.7-7.65,4.01-.43,1.67-.23,3.45,.22,5.12,.71,2.66,4.1,3.4,6.48,3.39,1.41,0,2.88-.46,3.8-1.53,1.61-1.86,1.12-4.86,.55-7.03Z"/><path class="cls-3" d="M704.25,1128.38c-1.72,2.92-2.59,6.75-1.78,9.96,.84,3.34,3.9,6.23,7.35,6.11,4.41-.16,7.26-4.66,8.83-8.79,.78-2.05,1.44-4.26,1.01-6.4-.3-1.5-1.19-2.9-2.46-3.74-3.97-2.62-9.19-2.29-12.13,1.63-.29,.39-.56,.8-.81,1.23Z"/><path class="cls-3" d="M960.13,1280.14c-.46-1.75-1.49-3.24-3.41-3.95-3.24-1.2-6.8,.7-7.65,4.01-.43,1.67-.23,3.45,.22,5.12,.71,2.66,4.1,3.4,6.48,3.39,1.41,0,2.88-.46,3.8-1.53,1.61-1.86,1.12-4.86,.55-7.03Z"/><path class="cls-3" d="M232.58,1263.74c.24,6.34,8.82,10.63,13.05,4.98,1.38-1.84,1.85-4.26,1.61-6.55-.24-2.3-1.17-4.53-2.63-6.33-1.63-2-4.42-3.49-6.76-2.41-.87,.41-1.56,1.12-2.15,1.87-1.8,2.29-3.23,5.47-3.12,8.44Z"/><path class="cls-3" d="M362.09,1304.7c.46,1.75,1.49,3.24,3.41,3.95,3.24,1.2,6.8-.7,7.65-4.01,.43-1.67,.23-3.45-.22-5.12-.71-2.66-4.1-3.4-6.48-3.39-1.41,0-2.88,.46-3.8,1.53-1.61,1.86-1.12,4.86-.55,7.03Z"/><path class="cls-3" d="M482.43,1064.41c.46,1.75,1.49,3.24,3.41,3.95,3.24,1.2,6.8-.7,7.65-4.01,.43-1.67,.23-3.45-.22-5.12-.71-2.66-4.1-3.4-6.48-3.39-1.41,0-2.88,.46-3.8,1.53-1.61,1.86-1.12,4.86-.55,7.03Z"/><path class="cls-3" d="M19.08,805.03c.46,1.75,1.49,3.24,3.41,3.95,3.24,1.2,6.8-.7,7.65-4.01,.43-1.67,.23-3.45-.22-5.12-.71-2.66-4.1-3.4-6.48-3.39-1.41,0-2.88,.46-3.8,1.53-1.61,1.86-1.12,4.86-.55,7.03Z"/><path class="cls-3" d="M427.03,1108.86c1.72-2.92,2.59-6.75,1.78-9.96-.84-3.34-3.9-6.23-7.35-6.11-4.41,.16-7.26,4.66-8.83,8.79-.78,2.05-1.44,4.26-1.01,6.4,.3,1.5,1.19,2.9,2.46,3.74,3.97,2.62,9.19,2.29,12.13-1.63,.29-.39,.56-.8,.81-1.23Z"/><path class="cls-3" d="M345.41,939.45c.46,1.75,1.49,3.24,3.41,3.95,3.24,1.2,6.8-.7,7.65-4.01,.43-1.67,.23-3.45-.22-5.12-.71-2.66-4.1-3.4-6.48-3.39-1.41,0-2.88,.46-3.8,1.53-1.61,1.86-1.12,4.86-.55,7.03Z"/><path class="cls-3" d="M132.59,1046.18c.46,1.75,1.49,3.24,3.41,3.95,3.24,1.2,6.8-.7,7.65-4.01,.43-1.67,.23-3.45-.22-5.12-.71-2.66-4.1-3.4-6.48-3.39-1.41,0-2.88,.46-3.8,1.53-1.61,1.86-1.12,4.86-.55,7.03Z"/><path class="cls-3" d="M513.53,764.58c2.47,4.58,10.15,6.08,12.23,.29,.81-2.25,.08-4.97-1.75-6.52-1.81-1.54-4.53-1.92-6.81-1.44-1.43,.3-2.84,1.01-3.66,2.22-.73,1.08-.92,2.49-.64,3.76,.13,.6,.34,1.16,.63,1.68Z"/><path class="cls-2" d="M681.81,847.96c-5.04,8.08-7.08,18.15-6.33,28.14,.52,6.89,1.35,14.02,5.65,19.68,3.97,5.23,9.9,8.93,16.15,10.8,10.2,3.04,25.4,3.8,35.37-.41,19.21-8.1,26.44-32.1,18.02-50.48-8.43-18.4-32.53-29.26-51.66-21.94-7.61,2.91-13.31,7.97-17.2,14.22Z"/><path class="cls-2" d="M1028.14,860.15c-5.04,8.08-7.08,18.15-6.33,28.14,.52,6.89,1.35,14.02,5.65,19.68,3.97,5.23,9.9,8.93,16.15,10.8,10.2,3.04,25.4,3.8,35.37-.41,19.21-8.1,26.44-32.1,18.02-50.48-8.43-18.4-32.53-29.26-51.66-21.94-7.61,2.91-13.31,7.97-17.2,14.22Z"/><path class="cls-2" d="M692.33,1279.25c-5.04,8.08-7.08,18.15-6.33,28.14,.52,6.89,1.35,14.02,5.65,19.68,3.97,5.23,9.9,8.93,16.15,10.8,10.2,3.04,25.4,3.8,35.37-.41,19.21-8.1,26.44-32.1,18.02-50.48-8.43-18.4-32.53-29.26-51.66-21.94-7.61,2.91-13.31,7.97-17.2,14.22Z"/><g><path class="cls-2" d="M584.01,1005.38c-9.68,7.35-21.22,19.19-18.74,32.59,1.26,6.8,6.42,12.28,12.24,16.01,15.93,10.24,37.66,10.63,55.83,7.86,19.14-2.92,38.02-10.43,52.79-23.15,10.12-8.71,17.87-20.82,19.05-34.13,.8-8.98-1.78-18.4-7.34-25.54-6.86-8.81-16.81-10.86-27.58-9.74-15.81,1.64-30.25,8.75-44.75,14.72-14.25,5.87-28.69,11.74-41.11,21.07-.13,.1-.27,.2-.4,.3Z"/><path class="cls-2" d="M653.7,972.82c-7.14-3.75-9.6-12.85-9.48-20.91,.04-2.71,.29-5.44,1.15-8.01,1.78-5.34,6.11-9.59,11.12-12.16,4.63-2.38,9.8-3.43,14.95-3.91,7.83-.74,15.48,2.87,19.15,10.01,5.38,10.47-.85,23.88-9.83,30.23"/></g><g><path class="cls-2" d="M908.21,1163.31c12.15,.37,28.42,3.33,34.16,15.68,2.92,6.26,1.89,13.73-.68,20.14-7.04,17.57-24.52,30.5-40.92,38.78-17.28,8.72-37.03,13.55-56.43,11.76-13.3-1.23-26.63-6.6-35.31-16.76-5.86-6.85-9.22-16.02-8.83-25.06,.48-11.16,7.4-18.6,16.81-23.93,13.83-7.83,29.72-10.42,44.99-13.95s30.18-7.07,45.71-6.67c.17,0,.33,0,.5,.01Z"/><path class="cls-2" d="M832.56,1177.19c3.64-7.19,.37-16.03-4.4-22.53-1.6-2.18-3.39-4.26-5.58-5.86-4.55-3.32-10.54-4.27-16.11-3.45-5.15,.75-9.98,2.89-14.45,5.48-6.8,3.94-10.95,11.32-9.79,19.26,1.69,11.65,14.54,18.96,25.54,18.92"/></g><path class="cls-2" d="M867.42,987.49c-4.72,4.16-7.57,9.98-11,15.24-3.67,5.62-8.16,10.76-13.64,14.63-10.15,7.15-22.87,9.43-34.13,14.67-11.26,5.23-22.03,15.7-20.69,28.04,.92,8.48,7.6,15.54,15.43,18.92,7.83,3.38,16.66,3.63,25.16,2.99,25.8-1.93,52.56-13.07,65.72-35.34,6.12-10.37,8.88-22.32,11.55-34.06,1.56-6.84,2.77-15.11-1.32-21.34-4.56-6.94-14.94-9.49-22.74-9.18-5.27,.21-10.33,1.91-14.33,5.43Z"/><path class="cls-1" d="M892.85,982.57c-.76-15.72,5.89-32.96,20.09-39.76,10.87-5.2,23.96-3.47,35.08-8.12,15.92-6.65,24.19-27.37,17.24-43.15"/><path class="cls-1" d="M904.44,990.47c-1.89-11.35,6.07-22.47,16.13-28.05,10.06-5.57,21.86-6.84,33.28-8.17s23.24-2.98,32.95-9.15c9.25-5.88,15.86-15.75,17.78-26.53"/><path class="cls-1" d="M881.67,982.04c-3.24-3.8-9.28-3.63-13.24-6.67-4.92-3.77-5.05-11.44-2.27-16.98,2.78-5.53,7.73-9.59,12.08-14,3.67-3.72,7.04-7.88,8.83-12.78s1.78-10.68-1.02-15.08c-4.43-6.97-14.99-9.76-16.44-17.89"/><path class="cls-1" d="M907.26,1004.66c.78-6.97,7.94-11.76,14.91-12.53s13.88,1.44,20.69,3.13c6.81,1.69,14.21,2.84,20.68,.11,5.4-2.29,9.38-6.98,12.76-11.77,1.61-2.28,3.16-4.64,5.24-6.5,4.53-4.02,10.88-5.09,16.87-5.99"/><path class="cls-2" d="M1049,1148.47c-2.04-5.95-6.34-10.8-9.9-15.99-3.79-5.53-6.84-11.65-8.32-18.19-2.74-12.11,0-24.74-.54-37.15s-6.11-26.35-18.03-29.82c-8.19-2.39-17.26,1.1-23.38,7.05-6.11,5.95-9.71,14.01-12.36,22.12-8.05,24.58-7.96,53.57,7.61,74.23,7.25,9.61,17.25,16.72,27.08,23.67,5.73,4.05,12.92,8.32,20.23,6.91,8.15-1.57,14.47-10.19,17.15-17.52,1.82-4.95,2.17-10.28,.45-15.32Z"/><path class="cls-1" d="M1043.85,1173.86c14.83,5.29,28.22,18.02,29.09,33.74,.66,12.03-5.93,23.48-5.87,35.53,.08,17.25,16.07,32.8,33.32,32.39"/><path class="cls-1" d="M1032.13,1181.56c11.21,2.58,18.46,14.18,19.78,25.61s-2.01,22.81-5.14,33.88c-3.13,11.07-6.11,22.62-4.11,33.95,1.91,10.79,8.51,20.67,17.75,26.55"/><path class="cls-1" d="M1048.61,1163.73c4.75-1.55,6.89-7.2,11.21-9.7,5.36-3.11,12.51-.31,16.56,4.38,4.05,4.68,5.92,10.8,8.34,16.51,2.04,4.81,4.6,9.52,8.45,13.03,3.85,3.52,9.19,5.71,14.33,4.8,8.14-1.44,14.74-10.14,22.81-8.37"/><path class="cls-1" d="M1017.94,1178.76c6.15,3.38,7.85,11.82,5.9,18.56s-6.63,12.28-10.79,17.94c-4.16,5.65-8.05,12.06-7.99,19.07,.05,5.86,2.87,11.33,6.01,16.29,1.49,2.36,3.09,4.69,4.01,7.32,1.99,5.72,.56,12-.89,17.88"/><path class="cls-2" d="M510.83,1004.58c-.24-6.34-8.82-10.63-13.05-4.98-1.38,1.84-1.85,4.26-1.61,6.55,.24,2.3,1.17,4.53,2.63,6.33,1.63,2,4.42,3.49,6.76,2.41,.87-.41,1.56-1.12,2.15-1.87,1.8-2.29,3.23-5.47,3.12-8.44Z"/><path class="cls-2" d="M805.11,801.71c-1.22-3.2-4.62-5.43-8.17-6.08-3.75-.68-6.29,1.51-6.99,5.13-.45,2.32-.24,4.81,.8,6.93,1.62,3.31,5.03,5.22,8.76,4.32,2.8-.67,5.13-2.99,5.82-5.78,.41-1.65,.28-3.18-.23-4.53Z"/><path class="cls-2" d="M937,1123.61c-1.22-3.2-4.62-5.43-8.17-6.08-3.75-.68-6.29,1.51-6.99,5.13-.45,2.32-.24,4.81,.8,6.93,1.62,3.31,5.03,5.22,8.76,4.32,2.8-.67,5.13-2.99,5.82-5.78,.41-1.65,.28-3.18-.23-4.53Z"/><path class="cls-2" d="M739.5,1068.66c-1.72,2.92-2.59,6.75-1.78,9.96,.84,3.34,3.9,6.23,7.35,6.11,4.41-.16,7.26-4.66,8.83-8.79,.78-2.05,1.44-4.26,1.01-6.4-.3-1.5-1.19-2.9-2.46-3.74-3.97-2.62-9.19-2.29-12.13,1.63-.29,.39-.56,.8-.81,1.23Z"/><path class="cls-2" d="M1093.95,977.35c-.46-1.75-1.49-3.24-3.41-3.95-3.24-1.2-6.8,.7-7.65,4.01-.43,1.67-.23,3.45,.22,5.12,.71,2.66,4.1,3.4,6.48,3.39,1.41,0,2.88-.46,3.8-1.53,1.61-1.86,1.12-4.86,.55-7.03Z"/><path class="cls-2" d="M747.83,949.38c-2.47-4.58-10.15-6.08-12.23-.29-.81,2.25-.08,4.97,1.75,6.52,1.81,1.54,4.53,1.92,6.81,1.44,1.43-.3,2.84-1.01,3.66-2.22,.73-1.08,.92-2.49,.64-3.76-.13-.6-.34-1.16-.63-1.68Z"/><path class="cls-2" d="M946.75,849.4c-2.47-4.58-10.15-6.08-12.23-.29-.81,2.25-.08,4.97,1.75,6.52,1.81,1.54,4.53,1.92,6.81,1.44,1.43-.3,2.84-1.01,3.66-2.22,.73-1.08,.92-2.49,.64-3.76-.13-.6-.34-1.16-.63-1.68Z"/><path class="cls-2" d="M570.02,1085.89c-2.66-1.54-6.04-1.83-8.98-.93-1.51,.46-2.95,1.26-3.97,2.46-1.69,1.98-2.03,4.92-1.11,7.36s2.97,4.35,5.35,5.41c3.18,1.4,7.13,1.26,9.93-.8,3.66-2.69,4.13-7.72,1.42-11.21-.73-.94-1.63-1.71-2.64-2.29Z"/><path class="cls-2" d="M1102.21,1087.93c2.94-1.69,5.58-4.59,6.46-7.79,.91-3.32-.32-7.35-3.38-8.94-3.91-2.03-8.62,.48-12.01,3.29-1.69,1.4-3.35,2.99-4.03,5.07-.47,1.45-.39,3.11,.3,4.47,2.16,4.24,6.87,6.53,11.36,4.56,.44-.19,.88-.42,1.31-.66Z"/><path class="cls-2" d="M757.31,1218.97c-.46,1.75-.3,3.55,1.02,5.12,2.23,2.64,6.26,2.74,8.63,.28,1.2-1.24,1.9-2.89,2.33-4.56,.7-2.66-1.89-4.98-3.97-6.15-1.23-.69-2.74-1.02-4.07-.54-2.32,.83-3.37,3.67-3.95,5.84Z"/><path class="cls-2" d="M864.83,1300.3c-.11,5.2,5.84,10.3,10.49,6.28,1.81-1.56,2.52-4.29,1.69-6.53-.82-2.23-3-3.91-5.22-4.61-1.39-.44-2.97-.52-4.28,.13-1.17,.58-2.02,1.71-2.41,2.96-.18,.58-.27,1.18-.28,1.77Z"/><path class="cls-2" d="M607.11,1142.76c-.11,5.2,5.84,10.3,10.49,6.28,1.81-1.56,2.52-4.29,1.69-6.53-.82-2.23-3-3.91-5.22-4.61-1.39-.44-2.97-.52-4.28,.13-1.17,.58-2.02,1.71-2.41,2.96-.18,.58-.27,1.18-.28,1.77Z"/><path class="cls-2" d="M278.04,998.45c5.04-8.08,7.08-18.15,6.33-28.14-.52-6.89-1.35-14.02-5.65-19.68-3.97-5.23-9.9-8.93-16.15-10.8-10.2-3.04-25.4-3.8-35.37,.41-19.21,8.1-26.44,32.1-18.02,50.48,8.43,18.4,32.53,29.26,51.66,21.94,7.61-2.91,13.31-7.97,17.2-14.22Z"/><path class="cls-2" d="M444.28,1198.34c5.04-8.08,7.08-18.15,6.33-28.14-.52-6.89-1.35-14.02-5.65-19.68-3.97-5.23-9.9-8.93-16.15-10.8-10.2-3.04-25.4-3.8-35.37,.41-19.21,8.1-26.44,32.1-18.02,50.48,8.43,18.4,32.53,29.26,51.66,21.94,7.61-2.91,13.31-7.97,17.2-14.22Z"/><g><path class="cls-2" d="M272.2,856.64c-9.68,7.35-21.22,19.19-18.74,32.59,1.26,6.8,6.42,12.28,12.24,16.01,15.93,10.24,37.66,10.63,55.83,7.86,19.14-2.92,38.02-10.43,52.79-23.15,10.12-8.71,17.87-20.82,19.05-34.13,.8-8.98-1.78-18.4-7.34-25.54-6.86-8.81-16.81-10.86-27.58-9.74-15.81,1.64-30.25,8.75-44.75,14.72-14.25,5.87-28.69,11.74-41.11,21.07-.13,.1-.27,.2-.4,.3Z"/><path class="cls-2" d="M341.89,824.07c-7.14-3.75-9.6-12.85-9.48-20.91,.04-2.71,.29-5.44,1.15-8.01,1.78-5.34,6.11-9.59,11.12-12.16,4.63-2.38,9.8-3.43,14.95-3.91,7.83-.74,15.48,2.87,19.15,10.01,5.38,10.47-.85,23.88-9.83,30.23"/></g><g><path class="cls-2" d="M297.44,1146.74c8.68,8.5,18.65,21.69,14.52,34.67-2.09,6.59-7.91,11.38-14.14,14.36-17.08,8.17-38.69,5.84-56.37,.83-18.63-5.28-36.42-15.1-49.49-29.56-8.96-9.91-15.13-22.89-14.64-36.24,.33-9.01,4.07-18.03,10.47-24.42,7.91-7.88,18.04-8.67,28.58-6.22,15.48,3.6,28.92,12.46,42.56,20.2,13.4,7.61,27,15.23,38.15,26.04,.12,.12,.24,.23,.36,.35Z"/><path class="cls-2" d="M232.37,1105.72c7.55-2.83,11.13-11.55,12.02-19.56,.3-2.69,.39-5.43-.14-8.09-1.1-5.52-4.86-10.27-9.52-13.45-4.3-2.94-9.3-4.63-14.35-5.75-7.67-1.71-15.72,.92-20.25,7.54-6.64,9.71-2.14,23.8,5.98,31.22"/></g><path class="cls-2" d="M144.67,882.45c4.72-4.16,7.57-9.98,11-15.24,3.67-5.62,8.16-10.76,13.64-14.63,10.15-7.15,22.87-9.43,34.13-14.67s22.03-15.7,20.69-28.04c-.92-8.48-7.6-15.54-15.43-18.92-7.83-3.38-16.66-3.63-25.16-2.99-25.8,1.93-52.56,13.07-65.72,35.34-6.12,10.37-8.88,22.32-11.55,34.06-1.56,6.84-2.77,15.11,1.32,21.34,4.56,6.94,14.94,9.49,22.74,9.18,5.27-.21,10.33-1.91,14.33-5.43Z"/><path class="cls-1" d="M119.24,887.37c.76,15.72-5.89,32.96-20.09,39.76-10.87,5.2-23.96,3.47-35.08,8.12-15.92,6.65-24.19,27.37-17.24,43.15"/><path class="cls-1" d="M107.65,879.47c1.89,11.35-6.07,22.47-16.13,28.05-10.06,5.57-21.86,6.84-33.28,8.17s-23.24,2.98-32.95,9.15c-9.25,5.88-15.86,15.75-17.78,26.53"/><path class="cls-1" d="M130.42,887.91c3.24,3.8,9.28,3.63,13.24,6.67,4.92,3.77,5.05,11.44,2.27,16.98s-7.73,9.59-12.08,14c-3.67,3.72-7.04,7.88-8.83,12.78s-1.78,10.68,1.02,15.08c4.43,6.97,14.99,9.76,16.44,17.89"/><path class="cls-1" d="M104.82,865.28c-.78,6.97-7.94,11.76-14.91,12.53s-13.88-1.44-20.69-3.13c-6.81-1.69-14.21-2.84-20.68-.11-5.4,2.29-9.38,6.98-12.76,11.77-1.61,2.28-3.16,4.64-5.24,6.5-4.53,4.02-10.88,5.09-16.87,5.99"/><path class="cls-2" d="M475.09,894.4c-5.21,3.53-8.75,8.95-12.82,13.75-4.34,5.12-9.44,9.66-15.36,12.81-10.96,5.83-23.87,6.5-35.7,10.29s-23.81,12.82-24.03,25.24c-.15,8.53,5.6,16.37,12.95,20.7,7.35,4.33,16.07,5.68,24.59,6.11,25.84,1.3,53.78-6.41,69.61-26.86,7.37-9.52,11.6-21.04,15.71-32.35,2.4-6.59,4.63-14.65,1.35-21.34-3.66-7.46-13.63-11.28-21.41-11.94-5.26-.45-10.49,.61-14.89,3.6Z"/><path class="cls-1" d="M500.93,892.69c1.2-15.7,9.96-31.97,24.9-36.94,11.43-3.8,24.21-.46,35.82-3.68,16.62-4.61,27.42-24.13,22.49-40.66"/><path class="cls-1" d="M511.44,901.97c-.45-11.49,8.83-21.54,19.51-25.81,10.68-4.27,22.54-4.06,34.04-3.95,11.5,.11,23.43-.05,33.84-4.96,9.91-4.68,17.7-13.64,20.95-24.11"/><path class="cls-1" d="M489.91,890.77c-2.74-4.18-8.76-4.76-12.31-8.27-4.41-4.36-3.59-11.98-.13-17.13,3.45-5.14,8.87-8.55,13.74-12.39,4.1-3.23,7.97-6.94,10.35-11.58s3.1-10.37,.87-15.09c-3.53-7.47-13.65-11.55-14.07-19.81"/><path class="cls-1" d="M512.48,916.41c1.64-6.82,9.34-10.68,16.36-10.57,7.02,.11,13.59,3.16,20.14,5.69,6.55,2.53,13.75,4.6,20.5,2.69,5.64-1.59,10.18-5.75,14.13-10.08,1.88-2.06,3.71-4.21,6.01-5.79,4.99-3.43,11.43-3.69,17.49-3.84"/><path class="cls-2" d="M83.82,1222.84c2.04,5.95,6.34,10.8,9.9,15.99,3.79,5.53,6.84,11.65,8.32,18.19,2.74,12.11,0,24.74,.54,37.15s6.11,26.35,18.03,29.82c8.19,2.39,17.26-1.1,23.38-7.05,6.11-5.95,9.71-14.01,12.36-22.12,8.05-24.58,7.96-53.57-7.61-74.23-7.25-9.61-17.25-16.72-27.08-23.67-5.73-4.05-12.92-8.32-20.23-6.91-8.15,1.57-14.47,10.19-17.15,17.52-1.82,4.95-2.17,10.28-.45,15.32Z"/><path class="cls-1" d="M88.97,1197.45c-14.83-5.29-28.22-18.02-29.09-33.74-.66-12.03,5.93-23.48,5.87-35.53-.08-17.25-16.07-32.8-33.32-32.39"/><path class="cls-1" d="M100.69,1189.75c-11.21-2.58-18.46-14.18-19.78-25.61-1.31-11.43,2.01-22.81,5.14-33.88,3.13-11.07,6.11-22.62,4.11-33.95-1.91-10.79-8.51-20.67-17.75-26.55"/><path class="cls-1" d="M84.21,1207.58c-4.75,1.55-6.89,7.2-11.21,9.7-5.36,3.11-12.51,.31-16.56-4.38-4.05-4.68-5.92-10.8-8.34-16.51-2.04-4.81-4.6-9.52-8.45-13.03s-9.19-5.71-14.33-4.8c-8.14,1.44-14.74,10.14-22.81,8.37"/><path class="cls-1" d="M114.88,1192.55c-6.15-3.38-7.85-11.82-5.9-18.56,1.95-6.74,6.63-12.28,10.79-17.94,4.16-5.65,8.05-12.06,7.99-19.07-.05-5.86-2.87-11.33-6.01-16.29-1.49-2.36-3.09-4.69-4.01-7.32-1.99-5.72-.56-12,.89-17.88"/><path class="cls-2" d="M155.72,1202.71c1.22,3.2,4.62,5.43,8.17,6.08,3.75,.68,6.29-1.51,6.99-5.13,.45-2.32,.24-4.81-.8-6.93-1.62-3.31-5.03-5.22-8.76-4.32-2.8,.67-5.13,2.99-5.82,5.78-.41,1.65-.28,3.18,.23,4.53Z"/><path class="cls-2" d="M353.22,1257.65c1.72-2.92,2.59-6.75,1.78-9.96-.84-3.34-3.9-6.23-7.35-6.11-4.41,.16-7.26,4.66-8.83,8.79-.78,2.05-1.44,4.26-1.01,6.4,.3,1.5,1.19,2.9,2.46,3.74,3.97,2.62,9.19,2.29,12.13-1.63,.29-.39,.56-.8,.81-1.23Z"/><path class="cls-2" d="M178.56,1311.14c.46,1.75,1.49,3.24,3.41,3.95,3.24,1.2,6.8-.7,7.65-4.01,.43-1.67,.23-3.45-.22-5.12-.71-2.66-4.1-3.4-6.48-3.39-1.41,0-2.88,.46-3.8,1.53-1.61,1.86-1.12,4.86-.55,7.03Z"/><path class="cls-2" d="M204.12,881.42c2.92-5.64-2.44-13.59-8.9-10.76-2.11,.92-3.71,2.8-4.63,4.91-.93,2.12-1.22,4.52-.83,6.8,.43,2.54,2.12,5.22,4.69,5.42,.96,.08,1.91-.21,2.8-.57,2.69-1.11,5.51-3.16,6.87-5.8Z"/><path class="cls-2" d="M440.82,853.46c.52-3.39-1.34-7.01-4.11-9.31-2.92-2.44-6.22-1.79-8.61,1.02-1.53,1.8-2.58,4.06-2.72,6.43-.22,3.68,1.8,7.02,5.49,8.08,2.76,.8,5.94-.07,7.92-2.16,1.17-1.24,1.81-2.62,2.03-4.05Z"/><path class="cls-2" d="M11.84,1250.5c-2.94,1.69-5.58,4.59-6.46,7.79-.91,3.32,.32,7.35,3.38,8.94,3.91,2.03,8.62-.48,12.01-3.29,1.69-1.4,3.35-2.99,4.03-5.07,.47-1.45,.39-3.11-.3-4.47-2.16-4.24-6.87-6.53-11.36-4.56-.44,.19-.88,.42-1.31,.66Z"/><path class="cls-2" d="M335.41,1107.35c.46-1.75,.3-3.55-1.02-5.12-2.23-2.64-6.26-2.74-8.63-.28-1.2,1.24-1.9,2.89-2.33,4.56-.7,2.66,1.89,4.98,3.97,6.15,1.23,.69,2.74,1.02,4.07,.54,2.32-.83,3.37-3.67,3.95-5.84Z"/><path class="cls-2" d="M175.35,984.45c.11-5.2-5.84-10.3-10.49-6.28-1.81,1.56-2.52,4.29-1.69,6.53,.82,2.23,3,3.91,5.22,4.61,1.39,.44,2.97,.52,4.28-.13,1.17-.58,2.02-1.71,2.41-2.96,.18-.58,.27-1.18,.28-1.77Z"/><path class="cls-2" d="M509.74,1154.74c.11-5.2-5.84-10.3-10.49-6.28-1.81,1.56-2.52,4.29-1.69,6.53,.82,2.23,3,3.91,5.22,4.61,1.39,.44,2.97,.52,4.28-.13,1.17-.58,2.02-1.71,2.41-2.96,.18-.58,.27-1.18,.28-1.77Z"/><path class="cls-2" d="M40.16,1020.27c-1.55-2.65-4.35-4.57-7.35-5.23-1.54-.34-3.18-.36-4.67,.18-2.45,.89-4.2,3.28-4.6,5.85s.44,5.25,1.99,7.34c2.08,2.79,5.58,4.61,9.03,4.2,4.51-.53,7.4-4.67,6.76-9.06-.17-1.18-.58-2.29-1.16-3.29Z"/></g></svg>